<svg width="13" height="11" viewBox="0 0 13 11" fill="none" xmlns="http://www.w3.org/2000/svg">
<path d="M0.418125 8.04C0.418125 7.05333 0.924792 5.77333 1.93813 4.2C2.95146 2.62667 3.96479 1.45333 4.97813 0.68L6.09813 1.88C5.51146 2.41333 4.99146 3.05333 4.53813 3.8C4.08479 4.54666 3.76479 5.30666 3.57813 6.08C4.13813 6.34667 4.60479 6.69333 4.97813 7.12C5.37813 7.52 5.57813 7.89333 5.57813 8.24C5.57813 8.72 5.31146 9.26667 4.77813 9.88C4.27146 10.4667 3.76479 10.76 3.25813 10.76C2.91146 10.76 2.51146 10.64 2.05813 10.4C1.60479 10.1333 1.21813 9.8 0.898125 9.4C0.578125 8.97333 0.418125 8.52 0.418125 8.04ZM12.8181 1.88C12.2581 2.41333 11.7515 3.05333 11.2981 3.8C10.8448 4.54666 10.5248 5.30666 10.3381 6.08C10.8981 6.34667 11.3648 6.69333 11.7381 7.12C12.1115 7.52 12.2981 7.89333 12.2981 8.24C12.2981 8.72 12.0315 9.26667 11.4981 9.88C10.9915 10.4667 10.4981 10.76 10.0181 10.76C9.67146 10.76 9.27146 10.64 8.81813 10.4C8.36479 10.1333 7.97813 9.8 7.65813 9.4C7.33813 8.97333 7.17813 8.52 7.17813 8.04C7.17813 7.05333 7.68479 5.77333 8.69813 4.2C9.71146 2.62667 10.7248 1.45333 11.7381 0.68L12.8181 1.88Z" fill="#08105D"/>
</svg>
