<svg width="13" height="11" viewBox="0 0 13 11" fill="none" xmlns="http://www.w3.org/2000/svg">
<path d="M12.5819 2.96C12.5819 3.94667 12.0752 5.22667 11.0619 6.8C10.0485 8.37333 9.03521 9.54667 8.02188 10.32L6.90188 9.12C7.48854 8.58667 8.00854 7.94667 8.46188 7.2C8.91521 6.45333 9.23521 5.69333 9.42188 4.92C8.86188 4.65333 8.39521 4.30667 8.02188 3.88C7.62188 3.48 7.42188 3.10667 7.42188 2.76C7.42188 2.28 7.68854 1.73333 8.22188 1.12C8.72854 0.533333 9.23521 0.24 9.74188 0.24C10.0885 0.24 10.4885 0.36 10.9419 0.6C11.3952 0.866667 11.7819 1.2 12.1019 1.6C12.4219 2.02667 12.5819 2.48 12.5819 2.96ZM0.181875 9.12C0.741876 8.58667 1.24854 7.94667 1.70188 7.2C2.15521 6.45333 2.47521 5.69333 2.66188 4.92C2.10188 4.65333 1.63521 4.30667 1.26188 3.88C0.888543 3.48 0.701876 3.10667 0.701876 2.76C0.701876 2.28 0.968543 1.73333 1.50188 1.12C2.00854 0.533332 2.50188 0.239999 2.98188 0.239999C3.32854 0.239999 3.72854 0.359999 4.18188 0.6C4.63521 0.866666 5.02188 1.2 5.34188 1.6C5.66188 2.02667 5.82188 2.48 5.82188 2.96C5.82188 3.94667 5.31521 5.22667 4.30188 6.8C3.28854 8.37333 2.27521 9.54667 1.26188 10.32L0.181875 9.12Z" fill="#08105D"/>
</svg>
