<svg width="39" height="39" viewBox="0 0 39 39" fill="none" xmlns="http://www.w3.org/2000/svg">
<circle cx="19.5" cy="19.5" r="18.5" stroke="white" stroke-opacity="0.8" stroke-width="2"/>
<path d="M29.016 13.5427L26.8208 15.9992C26.5281 16.1665 26.6988 16.3825 26.8208 16.4696L28.0752 17.6718C28.3679 17.7972 28.6153 17.6195 28.7024 17.515L30.7931 15.1107C31.1276 14.818 30.9325 14.5706 30.7931 14.4835L29.591 13.4381C29.3401 13.2709 29.1031 13.4381 29.016 13.5427Z" stroke="white" stroke-width="0.8"/>
<path d="M17.4775 18.9863L22.9775 12.9863" stroke="white" stroke-linecap="round"/>
<path d="M19.4775 20.4863L24.9394 14.4307" stroke="white" stroke-linecap="round"/>
<rect x="16.6541" y="19.1504" width="3.31203" height="1.17255" rx="0.586274" transform="rotate(40.5972 16.6541 19.1504)" stroke="#9AEBE7" stroke-width="0.5"/>
<path d="M27.8624 12.9148L26.1411 14.901C25.8902 15.3191 25.5836 15.0752 25.4616 14.901L22.7437 12.3922C23.8727 10.5942 21.4022 9.62202 20.0258 9.36068C18.9805 9.19343 19.4509 8.80317 19.8168 8.62894C21.9911 7.20728 24.242 8.52441 25.0957 9.36068L27.9704 12.0263C28.3049 12.2354 28.2492 12.4619 28.1795 12.549L27.8624 12.9148ZM27.8624 12.9148L28.7022 13.8034" stroke="white"/>
<path d="M26.4023 14.6387L27.1864 15.4227" stroke="white"/>
<rect x="13.3065" y="24.0456" width="1.67207" height="0.37271" rx="0.186355" transform="rotate(42.6872 13.3065 24.0456)" stroke="#9AEBE7" stroke-width="0.37271"/>
<path d="M8.73145 29.7937L10.8483 27.4678L13.044 25.1167C13.06 25.0995 13.0828 25.0904 13.1063 25.0917V25.0917C13.1287 25.093 13.1487 25.0893 13.1712 25.0896C13.1721 25.0896 13.1729 25.0896 13.1738 25.0896C13.2156 25.0896 13.3562 25.2197 13.4352 25.2987C13.5141 25.3777 13.556 25.4404 13.5141 25.4822C13.4723 25.524 10.6394 28.6356 9.22823 30.1862" stroke="#9AEBE7" stroke-width="0.2"/>
<path fill-rule="evenodd" clip-rule="evenodd" d="M15.7988 21.4456C16.0363 21.3046 16.1145 20.9979 15.9735 20.7604C15.8325 20.523 15.5257 20.4448 15.2883 20.5858C13.9624 21.373 13.3604 21.7795 12.9732 22.187L12.9732 22.1869L12.9682 22.1924L8.63 26.8964L8.60557 26.9229L8.58519 26.9526C8.3411 27.3086 8.05812 27.9011 8.00775 28.5491C7.96564 29.0908 8.08904 29.6822 8.52982 30.1738L9.20733 29.4229C9.03072 29.1827 8.98272 28.9098 9.00474 28.6266C9.0368 28.2141 9.22181 27.8028 9.391 27.5463L13.7006 22.8732C13.9759 22.5844 14.4525 22.245 15.7988 21.4456ZM9.52648 29.7239L8.84919 30.4676C8.87096 30.4842 8.89323 30.5007 8.916 30.517C9.77113 31.1278 10.5543 31.1821 11.23 30.8976C11.8478 30.6374 12.308 30.1173 12.6161 29.758L16.2731 25.5785L16.2804 25.5702L16.2872 25.5616C16.3034 25.5414 16.3209 25.5199 16.3399 25.4966C16.5891 25.1905 17.0868 24.5793 17.9318 22.7402C18.0471 22.4893 17.9371 22.1924 17.6862 22.0771C17.4353 21.9618 17.1384 22.0718 17.0231 22.3227C16.2236 24.0628 15.7711 24.6139 15.5563 24.8756L15.5562 24.8757C15.5408 24.8945 15.5266 24.9118 15.5136 24.9279L11.8618 29.1014L11.8618 29.1014L11.8585 29.1052C11.5393 29.4776 11.2161 29.8184 10.8419 29.9759C10.5297 30.1074 10.1191 30.1368 9.52648 29.7239Z" fill="white"/>
</svg>
