<svg width="173" height="37" viewBox="0 0 173 37" fill="none" xmlns="http://www.w3.org/2000/svg">
<path d="M6.512 28.416H5.88V31.336H4.864V28.576H4.248V35.224H4.864V31.88H5.88V35.584H6.512V28.416ZM1.432 33.16V29.288H0.776V33.728H1.232C2.008 33.728 2.832 33.688 3.8 33.504L3.736 32.936C2.872 33.104 2.136 33.152 1.432 33.16ZM16.2764 31.832V31.28H15.0924V28.424H14.4364V35.592H15.0924V31.832H16.2764ZM9.86044 29.136V33.768H13.1484V29.136H9.86044ZM10.5004 33.24V29.664H12.5084V33.24H10.5004ZM20.1718 28.576C18.6198 28.576 17.6518 29.08 17.6518 29.936C17.6518 30.792 18.6198 31.288 20.1718 31.288C21.7238 31.288 22.6918 30.792 22.6918 29.936C22.6918 29.08 21.7238 28.576 20.1718 28.576ZM20.1718 29.096C21.3318 29.096 22.0198 29.392 22.0198 29.936C22.0198 30.48 21.3318 30.776 20.1718 30.776C19.0118 30.776 18.3238 30.48 18.3238 29.936C18.3238 29.392 19.0118 29.096 20.1718 29.096ZM23.4198 31.904H16.9318V32.432H23.4198V31.904ZM22.6278 33.136H17.7318V35.496H22.6278V33.136ZM18.3718 33.656H21.9878V34.968H18.3718V33.656ZM31.9283 31.304L32.1763 30.776C30.8963 30.608 29.6562 29.8 29.6562 28.848V28.528H28.9843V28.848C28.9843 29.8 27.7523 30.608 26.4723 30.776L26.7203 31.304C27.8163 31.112 28.8723 30.56 29.3203 29.728C29.7682 30.56 30.8403 31.112 31.9283 31.304ZM32.5923 32.016H29.6483V30.928H28.9923V32.016H26.0803V32.552H32.5923V32.016ZM26.8003 33.248V33.784H31.1123V35.6H31.7683V33.248H26.8003ZM41.1087 32.352V28.416H40.4527V32.352H41.1087ZM39.0367 28.904H35.7167V29.44H38.3407C38.2127 30.632 37.1647 31.512 35.3647 31.96L35.6207 32.472C37.7087 31.96 39.0367 30.72 39.0367 28.904ZM41.3087 34.952H40.2367V33.272H41.2207V32.744H36.4287V33.272H37.4127V34.952H36.3567V35.48H41.3087V34.952ZM38.0527 34.952V33.272H39.5887V34.952H38.0527ZM45.8281 31.52C47.3641 31.52 48.3481 30.992 48.3481 30.096C48.3481 29.2 47.3641 28.664 45.8281 28.664C44.2921 28.664 43.3081 29.2 43.3081 30.096C43.3081 30.992 44.2921 31.52 45.8281 31.52ZM45.8281 29.192C46.9561 29.192 47.6761 29.52 47.6761 30.096C47.6761 30.672 46.9561 30.992 45.8281 30.992C44.7001 30.992 43.9801 30.672 43.9801 30.096C43.9801 29.52 44.7001 29.192 45.8281 29.192ZM49.0681 32.192H42.5801V32.72H49.0681V32.192ZM44.0761 34.896V33.352H43.4201V35.432H48.3561V34.896H44.0761ZM56.5765 31.208L57.2165 31.28C57.4005 30.448 57.4005 29.808 57.4005 29.264V28.76H52.5125V29.288H56.7525C56.7525 29.808 56.7605 30.4 56.5765 31.208ZM58.2165 31.776H55.0565V30.336H54.4005V31.776H51.7525V32.304H58.2165V31.776ZM55.2885 33.192V32.872H54.6245V33.192C54.6245 34.128 53.5205 34.856 52.2005 35.048L52.4485 35.56C53.5605 35.368 54.5045 34.872 54.9605 34.096C55.3925 34.872 56.3605 35.368 57.4565 35.56L57.7045 35.048C56.3925 34.856 55.2885 34.136 55.2885 33.192ZM65.1919 28.416H64.5679V35.592H65.1919V28.416ZM63.1439 28.576V31.208H62.2399C62.1519 29.856 61.5839 29.016 60.7199 29.016C59.7839 29.016 59.1839 29.968 59.1839 31.504C59.1839 33.056 59.7839 34.016 60.7199 34.016C61.5999 34.016 62.1759 33.152 62.2399 31.744H63.1439V35.24H63.7679V28.576H63.1439ZM60.7199 33.408C60.1439 33.408 59.7839 32.696 59.7839 31.504C59.7839 30.352 60.1439 29.624 60.7199 29.624C61.2719 29.624 61.6479 30.352 61.6479 31.504C61.6479 32.696 61.2959 33.408 60.7199 33.408ZM74.1243 32.576V28.424H73.4683V32.576H74.1243ZM71.9803 31.928V28.72H71.3323V29.816H69.2683V28.72H68.6203V31.928H71.9803ZM71.3323 30.328V31.4H69.2683V30.328H71.3323ZM72.1963 33.6H74.2923V33.088H72.1803V32.392H71.5243V33.088H69.4203V33.6H71.5163C71.4763 34.28 70.3643 34.968 69.1403 35.096L69.3643 35.592C70.4523 35.44 71.4283 34.96 71.8523 34.28C72.3083 34.952 73.2203 35.432 74.3163 35.584L74.5483 35.096C73.3243 34.944 72.2363 34.264 72.1963 33.6ZM81.4757 28.416H80.8197V35.608H81.4757V28.416ZM77.6917 28.968C76.6277 28.968 75.8677 29.944 75.8677 31.472C75.8677 33 76.6277 33.976 77.6917 33.976C78.7557 33.976 79.5157 33 79.5157 31.472C79.5157 29.944 78.7557 28.968 77.6917 28.968ZM77.6917 29.56C78.3877 29.56 78.8837 30.312 78.8837 31.472C78.8837 32.64 78.3877 33.392 77.6917 33.392C76.9877 33.392 76.4917 32.64 76.4917 31.472C76.4917 30.312 76.9877 29.56 77.6917 29.56ZM91.3841 29.984H90.3201V28.424H89.6641V32.208H90.3201V30.528H91.3841V29.984ZM88.9841 31.424L88.9041 30.896C87.9441 31.088 87.1121 31.144 85.7201 31.144V29.336H88.2401V28.8H85.0721V31.68H85.6241C87.1041 31.68 87.9601 31.64 88.9841 31.424ZM88.4481 32.688V31.992H87.7921V32.688H85.6161V33.192H90.6161V32.688H88.4481ZM88.1201 33.512C86.8641 33.512 86.1201 33.888 86.1201 34.56C86.1201 35.232 86.8641 35.6 88.1201 35.6C89.3761 35.6 90.1121 35.232 90.1121 34.56C90.1121 33.888 89.3761 33.512 88.1201 33.512ZM88.1201 35.12C87.2881 35.12 86.8001 34.92 86.8001 34.56C86.8001 34.184 87.2881 33.992 88.1201 33.992C88.9521 33.992 89.4321 34.184 89.4321 34.56C89.4321 34.92 88.9521 35.12 88.1201 35.12ZM97.8635 31.112V30.576H93.6395V28.68H92.9835V31.112H97.8635ZM98.6075 32.072H92.1035V32.6H98.6075V32.072ZM93.5915 34.88V33.32H92.9355V35.416H97.9035V34.88H93.5915ZM106.276 29.312V29.392C106.276 29.944 106.276 30.48 106.084 31.216L106.724 31.288C106.924 30.552 106.924 29.968 106.924 29.392V28.784H102.036V29.312H106.276ZM107.732 31.76H104.58V30.384H103.924V31.76H101.276V32.296H107.732V31.76ZM104.476 32.952C102.948 32.952 101.98 33.44 101.98 34.272C101.98 35.08 102.948 35.584 104.476 35.584C106.004 35.584 106.98 35.08 106.98 34.272C106.98 33.44 106.004 32.952 104.476 32.952ZM104.476 35.072C103.356 35.072 102.636 34.776 102.636 34.272C102.636 33.76 103.356 33.456 104.476 33.456C105.604 33.456 106.324 33.76 106.324 34.272C106.324 34.784 105.604 35.072 104.476 35.072ZM115.251 30.6H114.187V28.424H113.531V33.664H114.187V31.144H115.251V30.6ZM112.267 28.976H108.923V29.512H111.563C111.435 30.776 110.315 31.792 108.635 32.32L108.899 32.84C110.971 32.2 112.267 30.832 112.267 28.976ZM110.371 34.896V33.128H109.715V35.432H114.499V34.896H110.371ZM116.003 33.984L115.715 35.6H116.243L116.731 33.984H116.003ZM124.923 30.912V28.544H124.275V29.224H120.787V28.544H120.139V30.912H124.923ZM124.275 29.72V30.408H120.787V29.72H124.275ZM125.771 31.52H119.275V32.04H125.771V31.52ZM120.723 35.008V34.296H124.939V32.696H120.059V33.192H124.291V33.824H120.083V35.512H125.155V35.008H120.723ZM131.699 29.224V30.072H127.435V32.032H132.523V31.496H128.091V30.576H132.363V28.704H127.411V29.224H131.699ZM133.147 33.304V32.768H126.635V33.304H129.555V35.6H130.211V33.304H133.147ZM139.658 31.272V28.752H134.834V31.272H139.658ZM139.01 29.28V30.744H135.474V29.28H139.01ZM140.506 32.088H133.986V32.616H136.97V34.064H137.626V32.616H140.506V32.088ZM135.474 34.896V33.384H134.818V35.432H139.778V34.896H135.474ZM149.855 31.792V31.248H148.671V28.416H148.015V35.608H148.671V31.792H149.855ZM144.111 33.256V29.648H146.791V29.104H143.455V33.816H144.023C145.367 33.816 146.327 33.776 147.415 33.56L147.343 33.016C146.311 33.208 145.391 33.256 144.111 33.256ZM156.382 28.416H155.726V35.608H156.382V28.416ZM152.598 28.968C151.534 28.968 150.774 29.944 150.774 31.472C150.774 33 151.534 33.976 152.598 33.976C153.662 33.976 154.422 33 154.422 31.472C154.422 29.944 153.662 28.968 152.598 28.968ZM152.598 29.56C153.294 29.56 153.79 30.312 153.79 31.472C153.79 32.64 153.294 33.392 152.598 33.392C151.894 33.392 151.398 32.64 151.398 31.472C151.398 30.312 151.894 29.56 152.598 29.56ZM163.781 28.416H163.125V31.152H161.565C161.461 29.808 160.757 28.968 159.789 28.968C158.741 28.968 157.997 29.944 157.997 31.472C157.997 33 158.741 33.976 159.789 33.976C160.789 33.976 161.501 33.096 161.565 31.688H163.125V35.608H163.781V28.416ZM159.789 33.392C159.101 33.392 158.621 32.64 158.621 31.472C158.621 30.312 159.101 29.56 159.789 29.56C160.469 29.56 160.949 30.312 160.949 31.472C160.949 32.64 160.469 33.392 159.789 33.392ZM171.117 28.408H170.461V35.6H171.117V28.408ZM166.301 33.32V31.648H168.949V29.08H165.621V29.616H168.285V31.112H165.645V33.864H166.237C167.477 33.864 168.549 33.816 169.853 33.6L169.789 33.064C168.541 33.256 167.477 33.32 166.301 33.32Z" fill="white"/>
<path d="M46.16 17C45.842 17 45.683 16.841 45.683 16.523V5.876C45.683 5.558 45.842 5.399 46.16 5.399H50.858C51.74 5.399 52.406 5.624 52.856 6.074C53.312 6.518 53.54 7.172 53.54 8.036V8.522C53.54 9.464 53.237 10.13 52.631 10.52C53.681 10.952 54.206 11.888 54.206 13.328V13.895C54.206 14.915 53.942 15.689 53.414 16.217C52.892 16.739 52.118 17 51.092 17H46.16ZM46.628 16.055H51.092C51.854 16.055 52.406 15.884 52.748 15.542C53.09 15.2 53.261 14.651 53.261 13.895V13.328C53.261 12.572 53.09 12.026 52.748 11.69C52.412 11.354 51.86 11.186 51.092 11.186H46.628V16.055ZM46.628 10.241H50.993C51.539 10.241 51.941 10.103 52.199 9.827C52.463 9.545 52.595 9.11 52.595 8.522V8.036C52.595 7.436 52.457 7.004 52.181 6.74C51.911 6.476 51.47 6.344 50.858 6.344H46.628V10.241ZM59.3201 17C58.4681 17 57.8411 16.802 57.4391 16.406C57.0431 16.01 56.8451 15.389 56.8451 14.543V4.985C56.8451 4.673 57.0041 4.517 57.3221 4.517C57.6341 4.517 57.7901 4.673 57.7901 4.985V14.543C57.7901 15.125 57.8981 15.524 58.1141 15.74C58.3301 15.95 58.7291 16.055 59.3111 16.055C59.6351 16.055 59.7971 16.211 59.7971 16.523C59.8031 16.841 59.6441 17 59.3201 17ZM69.2294 8.495C69.5474 8.495 69.7064 8.651 69.7064 8.963V16.523C69.7064 16.841 69.5474 17 69.2294 17C68.9174 17 68.7614 16.841 68.7614 16.523V15.668C68.1914 16.556 67.1594 17 65.6654 17H65.1614C64.0394 17 63.2174 16.739 62.6954 16.217C62.1794 15.695 61.9214 14.873 61.9214 13.751V8.963C61.9214 8.651 62.0774 8.495 62.3894 8.495C62.7074 8.495 62.8664 8.651 62.8664 8.963V13.751C62.8664 14.609 63.0344 15.209 63.3704 15.551C63.7124 15.887 64.3094 16.055 65.1614 16.055H65.6654C66.5954 16.055 67.3274 15.905 67.8614 15.605C68.3954 15.305 68.6954 14.846 68.7614 14.228V8.963C68.7614 8.651 68.9174 8.495 69.2294 8.495ZM73.7717 13.112V13.769C73.7717 14.615 73.9397 15.209 74.2757 15.551C74.6177 15.887 75.2177 16.055 76.0757 16.055H77.5517C78.3077 16.055 78.8567 15.959 79.1987 15.767C79.5467 15.569 79.7537 15.23 79.8197 14.75C79.8437 14.6 79.8917 14.486 79.9637 14.408C80.0417 14.33 80.1587 14.291 80.3147 14.291C80.4707 14.291 80.5877 14.336 80.6657 14.426C80.7497 14.51 80.7827 14.63 80.7647 14.786C80.6867 15.542 80.3837 16.1 79.8557 16.46C79.3277 16.82 78.5597 17 77.5517 17H76.0757C74.9537 17 74.1317 16.742 73.6097 16.226C73.0877 15.704 72.8267 14.885 72.8267 13.769V11.735C72.8267 10.601 73.0877 9.776 73.6097 9.26C74.1317 8.738 74.9537 8.483 76.0757 8.495H77.5517C78.6737 8.495 79.4927 8.756 80.0087 9.278C80.5307 9.794 80.7917 10.613 80.7917 11.735V12.635C80.7917 12.953 80.6357 13.112 80.3237 13.112H73.7717ZM76.0757 9.44C75.2177 9.428 74.6177 9.593 74.2757 9.935C73.9397 10.271 73.7717 10.871 73.7717 11.735V12.167H79.8467V11.735C79.8467 10.877 79.6787 10.28 79.3427 9.944C79.0067 9.608 78.4097 9.44 77.5517 9.44H76.0757ZM88.91 17C88.592 17 88.433 16.841 88.433 16.523V5.876C88.433 5.558 88.592 5.399 88.91 5.399C89.138 5.399 89.318 5.504 89.45 5.714L93.932 12.563L93.716 12.59L98.198 5.714C98.324 5.504 98.513 5.399 98.765 5.399C99.047 5.399 99.188 5.558 99.188 5.876V16.523C99.188 16.841 99.032 17 98.72 17C98.402 17 98.243 16.841 98.243 16.523V6.821L98.522 6.911L94.364 13.247C94.232 13.451 94.043 13.553 93.797 13.553C93.581 13.553 93.407 13.451 93.275 13.247L89.117 6.911L89.378 7.01V16.523C89.378 16.841 89.222 17 88.91 17ZM105.554 17C104.432 17 103.61 16.742 103.088 16.226C102.566 15.704 102.305 14.885 102.305 13.769V11.735C102.305 10.601 102.566 9.776 103.088 9.26C103.61 8.738 104.432 8.483 105.554 8.495H107.03C108.152 8.495 108.971 8.756 109.487 9.278C110.009 9.794 110.27 10.613 110.27 11.735V13.751C110.27 14.873 110.009 15.695 109.487 16.217C108.971 16.739 108.152 17 107.03 17H105.554ZM103.25 13.769C103.25 14.615 103.418 15.209 103.754 15.551C104.096 15.887 104.696 16.055 105.554 16.055H107.03C107.888 16.055 108.485 15.887 108.821 15.551C109.157 15.209 109.325 14.609 109.325 13.751V11.735C109.325 10.877 109.157 10.28 108.821 9.944C108.485 9.608 107.888 9.44 107.03 9.44H105.554C104.978 9.434 104.522 9.503 104.186 9.647C103.85 9.791 103.61 10.031 103.466 10.367C103.322 10.703 103.25 11.159 103.25 11.735V13.769ZM116.4 17C115.278 17 114.456 16.742 113.934 16.226C113.412 15.704 113.151 14.885 113.151 13.769V11.735C113.151 10.601 113.412 9.776 113.934 9.26C114.456 8.738 115.278 8.483 116.4 8.495H117.876C118.998 8.495 119.817 8.756 120.333 9.278C120.855 9.794 121.116 10.613 121.116 11.735V13.751C121.116 14.873 120.855 15.695 120.333 16.217C119.817 16.739 118.998 17 117.876 17H116.4ZM114.096 13.769C114.096 14.615 114.264 15.209 114.6 15.551C114.942 15.887 115.542 16.055 116.4 16.055H117.876C118.734 16.055 119.331 15.887 119.667 15.551C120.003 15.209 120.171 14.609 120.171 13.751V11.735C120.171 10.877 120.003 10.28 119.667 9.944C119.331 9.608 118.734 9.44 117.876 9.44H116.4C115.824 9.434 115.368 9.503 115.032 9.647C114.696 9.791 114.456 10.031 114.312 10.367C114.168 10.703 114.096 11.159 114.096 11.735V13.769ZM124.717 17C124.399 17 124.24 16.841 124.24 16.523V8.963C124.24 8.651 124.399 8.495 124.717 8.495C125.029 8.495 125.185 8.651 125.185 8.963V9.827C125.755 8.939 126.787 8.495 128.281 8.495H128.785C129.907 8.495 130.726 8.756 131.242 9.278C131.764 9.794 132.025 10.613 132.025 11.735V16.523C132.025 16.841 131.869 17 131.557 17C131.239 17 131.08 16.841 131.08 16.523V11.735C131.08 10.877 130.909 10.28 130.567 9.944C130.231 9.608 129.637 9.44 128.785 9.44H128.281C127.351 9.44 126.619 9.587 126.085 9.881C125.551 10.175 125.251 10.634 125.185 11.258V16.523C125.185 16.841 125.029 17 124.717 17Z" fill="white"/>
<path d="M38.5957 17.2339C38.5957 15.3647 38.2275 13.5137 37.5122 11.7868C36.7969 10.0599 35.7484 8.49074 34.4267 7.16901C33.1049 5.84727 31.5358 4.79881 29.8089 4.08349C28.0819 3.36817 26.231 3 24.3618 3C22.4926 3 20.6417 3.36817 18.9147 4.08349C17.1878 4.79881 15.6187 5.84727 14.2969 7.16901C12.9752 8.49075 11.9267 10.0599 11.2114 11.7868C10.4961 13.5137 10.1279 15.3647 10.1279 17.2339L24.3618 17.2339H38.5957Z" fill="url(#paint0_linear_1412_1260)" fill-opacity="0.69"/>
<path d="M28.7415 17.2339C28.7415 15.3647 28.3698 13.5137 27.6476 11.7868C26.9254 10.0599 25.8668 8.49074 24.5324 7.16901C23.1979 5.84727 21.6137 4.79881 19.8702 4.08349C18.1267 3.36817 16.2579 3 14.3707 3C12.4836 3 10.6148 3.36817 8.8713 4.08349C7.12776 4.79881 5.54354 5.84727 4.20909 7.16901C2.87465 8.49075 1.8161 10.0599 1.09391 11.7868C0.37171 13.5137 -1.64984e-07 15.3647 0 17.2339L14.3707 17.2339H28.7415Z" fill="#B6E9E6" fill-opacity="0.7"/>
<defs>
<linearGradient id="paint0_linear_1412_1260" x1="33.9882" y1="11.8859" x2="14.6532" y2="23.8983" gradientUnits="userSpaceOnUse">
<stop stop-color="#99EBE7"/>
<stop offset="1" stop-color="#9AEBE7" stop-opacity="0.42"/>
</linearGradient>
</defs>
</svg>
