<svg width="190" height="70" viewBox="0 0 190 70" fill="none" xmlns="http://www.w3.org/2000/svg">
<path d="M189.962 70C189.962 60.8075 188.151 51.7049 184.633 43.2122C181.115 34.7194 175.959 27.0026 169.459 20.5025C162.959 14.0024 155.242 8.84626 146.749 5.32843C138.257 1.8106 129.154 -4.01818e-07 119.962 0C110.769 4.01818e-07 101.666 1.8106 93.1737 5.32843C84.6809 8.84626 76.9642 14.0024 70.4641 20.5025C63.964 27.0026 58.8078 34.7194 55.29 43.2122C51.7721 51.705 49.9615 60.8075 49.9615 70L119.962 70H189.962Z" fill="url(#paint0_linear_1203_4959)" fill-opacity="0.69"/>
<path d="M141.5 70C141.5 60.8075 139.672 51.7049 136.12 43.2122C132.569 34.7194 127.363 27.0026 120.8 20.5025C114.238 14.0024 106.447 8.84626 97.8724 5.32843C89.2979 1.8106 80.1079 -4.01818e-07 70.827 0C61.546 4.01818e-07 52.356 1.8106 43.7815 5.32843C35.2071 8.84626 27.4161 14.0024 20.8535 20.5025C14.2909 27.0026 9.08519 34.7194 5.53354 43.2122C1.98188 51.705 0.153869 60.8075 0.15387 70L70.827 70H141.5Z" fill="#B6E9E6" fill-opacity="0.7"/>
<defs>
<linearGradient id="paint0_linear_1203_4959" x1="167.303" y1="43.6994" x2="72.2159" y2="102.775" gradientUnits="userSpaceOnUse">
<stop stop-color="#99EBE7"/>
<stop offset="1" stop-color="#9AEBE7" stop-opacity="0.42"/>
</linearGradient>
</defs>
</svg>
