<svg width="141" height="104" viewBox="0 0 141 104" fill="none" xmlns="http://www.w3.org/2000/svg">
<path d="M141 52C141 45.1713 139.655 38.4094 137.042 32.1005C134.428 25.7915 130.598 20.0591 125.77 15.2304C120.941 10.4018 115.208 6.57151 108.9 3.95826C102.591 1.34502 95.8287 -2.98494e-07 89 0C82.1713 2.98494e-07 75.4094 1.34502 69.1005 3.95827C62.7915 6.57151 57.0591 10.4018 52.2304 15.2304C47.4018 20.0591 43.5715 25.7915 40.9583 32.1005C38.345 38.4094 37 45.1713 37 52L89 52H141Z" fill="url(#paint0_linear_806_2246)" fill-opacity="0.69"/>
<path d="M105 52C105 45.1713 103.642 38.4094 101.004 32.1005C98.3653 25.7915 94.4982 20.0591 89.6231 15.2304C84.748 10.4018 78.9605 6.57151 72.5909 3.95826C66.2213 1.34502 59.3944 -2.98494e-07 52.5 0C45.6056 2.98494e-07 38.7787 1.34502 32.4091 3.95827C26.0395 6.57151 20.252 10.4018 15.3769 15.2304C10.5018 20.0591 6.63469 25.7915 3.99632 32.1005C1.35795 38.4094 -6.02727e-07 45.1713 0 52L52.5 52H105Z" fill="#B6E9E6" fill-opacity="0.7"/>
<defs>
<linearGradient id="paint0_linear_806_2246" x1="124.168" y1="32.4624" x2="53.5318" y2="76.3468" gradientUnits="userSpaceOnUse">
<stop stop-color="#99EBE7"/>
<stop offset="1" stop-color="#9AEBE7" stop-opacity="0.42"/>
</linearGradient>
</defs>
</svg>
