<svg width="26" height="25" viewBox="0 0 26 25" fill="none" xmlns="http://www.w3.org/2000/svg">
<mask id="path-1-inside-1_1153_864" fill="white">
<path fill-rule="evenodd" clip-rule="evenodd" d="M25.2496 15.6622C25.398 15.1442 24.6731 14.8559 24.307 15.2513C22.4665 17.2399 19.8375 18.4843 16.9187 18.4843C11.3523 18.4843 6.83993 13.9586 6.83993 8.37596C6.83993 5.44564 8.08316 2.80656 10.0695 0.960311C10.4638 0.593827 10.175 -0.128967 9.65767 0.0199154C4.39322 1.53504 0.541016 6.39963 0.541016 12.1666C0.541016 19.1449 6.18153 24.802 13.1395 24.802C18.8883 24.802 23.7377 20.9403 25.2496 15.6622Z"/>
</mask>
<path d="M10.0695 0.960311L9.04826 -0.138381L10.0695 0.960311ZM24.307 15.2513L25.4079 16.2702L24.307 15.2513ZM25.2496 15.6622L23.8076 15.2492L25.2496 15.6622ZM23.2062 14.2324C21.6371 15.9277 19.4016 16.9843 16.9187 16.9843V19.9843C20.2734 19.9843 23.2958 18.5521 25.4079 16.2702L23.2062 14.2324ZM16.9187 16.9843C12.1849 16.9843 8.33993 13.1343 8.33993 8.37596H5.33993C5.33993 14.7829 10.5198 19.9843 16.9187 19.9843V16.9843ZM8.33993 8.37596C8.33993 5.87891 9.39746 3.63283 11.0907 2.059L9.04826 -0.138381C6.76886 1.98028 5.33993 5.01237 5.33993 8.37596H8.33993ZM2.04102 12.1666C2.04102 7.08345 5.43594 2.79582 10.0725 1.4614L9.2428 -1.42157C3.35049 0.274248 -0.958984 5.7158 -0.958984 12.1666H2.04102ZM13.1395 23.302C7.0141 23.302 2.04102 18.3206 2.04102 12.1666H-0.958984C-0.958984 19.9692 5.34897 26.302 13.1395 26.302V23.302ZM23.8076 15.2492C22.4744 19.9034 18.1986 23.302 13.1395 23.302V26.302C19.5779 26.302 25.001 21.9771 26.6916 16.0753L23.8076 15.2492ZM11.0907 2.059C11.8185 1.38251 11.8811 0.4108 11.5878 -0.285454C11.436 -0.645744 11.1589 -1.0148 10.7297 -1.25564C10.2751 -1.5107 9.74501 -1.56611 9.2428 -1.42157L10.0725 1.4614C9.82899 1.5315 9.52897 1.51061 9.26171 1.36066C9.01979 1.22492 8.88725 1.03155 8.82306 0.879155C8.70492 0.598699 8.71474 0.171625 9.04826 -0.138381L11.0907 2.059ZM25.4079 16.2702C25.0979 16.6052 24.6706 16.6147 24.3911 16.4975C24.2391 16.4338 24.0458 16.3019 23.9097 16.0604C23.7592 15.7935 23.7377 15.4933 23.8076 15.2492L26.6916 16.0753C26.8357 15.5722 26.7792 15.0416 26.5231 14.5873C26.2814 14.1585 25.9117 13.8821 25.5513 13.7309C24.855 13.4389 23.8822 13.502 23.2062 14.2324L25.4079 16.2702Z" fill="#9AEBE7" mask="url(#path-1-inside-1_1153_864)"/>
</svg>
