<svg width="13" height="13" viewBox="0 0 13 13" fill="none" xmlns="http://www.w3.org/2000/svg">
<path fill-rule="evenodd" clip-rule="evenodd" d="M0.500962 0.500962C-0.166987 1.16891 -0.166987 2.25187 0.500961 2.91982L4.02255 6.4414L0.502226 9.96172C-0.165723 10.6297 -0.165722 11.7126 0.502226 12.3806C1.17017 13.0485 2.25313 13.0485 2.92108 12.3806L6.4414 8.86026L9.9614 12.3803C10.6293 13.0482 11.7123 13.0482 12.3803 12.3803C13.0482 11.7123 13.0482 10.6293 12.3803 9.9614L8.86026 6.4414L12.3815 2.92014C13.0495 2.2522 13.0495 1.16924 12.3815 0.501288C11.7136 -0.166661 10.6306 -0.166662 9.96266 0.501287L6.4414 4.02255L2.91982 0.500961C2.25187 -0.166987 1.16891 -0.166987 0.500962 0.500962Z" fill="#43567E" fill-opacity="0.8"/>
</svg>
