<svg width="35" height="35" viewBox="0 0 35 35" fill="none" xmlns="http://www.w3.org/2000/svg">
<circle cx="17.5" cy="17.5" r="17" stroke="#9AEBE7"/>
<path d="M29 15L19.0738 8.6833C18.4186 8.26639 17.5814 8.26639 16.9262 8.6833L7 15" stroke="#9AEBE7" stroke-linecap="round"/>
<path d="M10.0088 17.5094L9.598 16.8819L9.25879 17.1039V17.5094H10.0088ZM18.1777 12.1616L18.5885 11.5341L18.1777 11.2652L17.7669 11.5341L18.1777 12.1616ZM10.0088 25.2342H9.25879V25.9842H10.0088V25.2342ZM14.9723 25.2342V25.9842H15.551L15.6978 25.4244L14.9723 25.2342ZM14.9986 25.1369L14.276 24.9359L14.276 24.9359L14.9986 25.1369ZM15.7442 23.4747L15.1215 23.0566V23.0566L15.7442 23.4747ZM21.354 25.1369L22.0766 24.9359L22.0766 24.9359L21.354 25.1369ZM21.3803 25.2342L20.6548 25.4244L20.8015 25.9842H21.3803V25.2342ZM26.3466 25.2342V25.9842H27.0966V25.2342H26.3466ZM26.3466 17.5094H27.0966V17.1039L26.7574 16.8819L26.3466 17.5094ZM10.4196 18.1369L18.5885 12.7891L17.7669 11.5341L9.598 16.8819L10.4196 18.1369ZM10.7588 25.2342V17.5094H9.25879V25.2342H10.7588ZM14.9723 24.4842H10.0088V25.9842H14.9723V24.4842ZM14.276 24.9359C14.266 24.9719 14.2562 25.0079 14.2468 25.0441L15.6978 25.4244C15.7054 25.3954 15.7131 25.3665 15.7211 25.3378L14.276 24.9359ZM15.1215 23.0566C14.7521 23.6068 14.4676 24.2467 14.276 24.9359L15.7211 25.3378C15.8752 24.7838 16.0974 24.2941 16.3669 23.8927L15.1215 23.0566ZM16.4662 21.7258C15.9437 22.0482 15.4906 22.5068 15.1215 23.0566L16.3669 23.8927C16.6365 23.491 16.9418 23.1949 17.2538 23.0023L16.4662 21.7258ZM18.1763 21.224C17.5736 21.224 16.9914 21.4017 16.4662 21.7258L17.2538 23.0023C17.5633 22.8114 17.8755 22.724 18.1763 22.724V21.224ZM19.8864 21.7258C19.3612 21.4017 18.7789 21.224 18.1763 21.224V22.724C18.477 22.724 18.7893 22.8114 19.0987 23.0023L19.8864 21.7258ZM21.2311 23.0566C20.862 22.5068 20.4089 22.0482 19.8864 21.7258L19.0987 23.0023C19.4108 23.1949 19.716 23.491 19.9857 23.8927L21.2311 23.0566ZM22.0766 24.9359C21.8849 24.2467 21.6004 23.6068 21.2311 23.0566L19.9857 23.8927C20.2552 24.2941 20.4774 24.7838 20.6314 25.3378L22.0766 24.9359ZM22.1058 25.0441C22.0963 25.0079 22.0866 24.9719 22.0766 24.9359L20.6314 25.3378C20.6394 25.3665 20.6472 25.3954 20.6548 25.4244L22.1058 25.0441ZM26.3466 24.4842H21.3803V25.9842H26.3466V24.4842ZM25.5966 17.5094V25.2342H27.0966V17.5094H25.5966ZM17.7669 12.7891L25.9359 18.1369L26.7574 16.8819L18.5885 11.5341L17.7669 12.7891Z" fill="white" fill-opacity="0.8"/>
</svg>
