<svg width="26" height="25" viewBox="0 0 26 25" fill="none" xmlns="http://www.w3.org/2000/svg">
<mask id="path-1-inside-1_977_3971" fill="white">
<path fill-rule="evenodd" clip-rule="evenodd" d="M25.2496 15.6623C25.398 15.1443 24.6731 14.856 24.307 15.2514C22.4665 17.24 19.8375 18.4844 16.9187 18.4844C11.3523 18.4844 6.83993 13.9587 6.83993 8.37608C6.83993 5.44577 8.08316 2.80668 10.0695 0.960433C10.4638 0.593949 10.175 -0.128845 9.65767 0.0200374C4.39322 1.53516 0.541016 6.39975 0.541016 12.1667C0.541016 19.145 6.18153 24.8021 13.1395 24.8021C18.8883 24.8021 23.7377 20.9404 25.2496 15.6623Z"/>
</mask>
<path d="M10.0695 0.960433L9.04826 -0.138259L10.0695 0.960433ZM24.307 15.2514L25.4079 16.2703L24.307 15.2514ZM25.2496 15.6623L23.8076 15.2493L25.2496 15.6623ZM23.2062 14.2325C21.6371 15.9278 19.4016 16.9844 16.9187 16.9844V19.9844C20.2734 19.9844 23.2958 18.5523 25.4079 16.2703L23.2062 14.2325ZM16.9187 16.9844C12.1849 16.9844 8.33993 13.1345 8.33993 8.37608H5.33993C5.33993 14.783 10.5198 19.9844 16.9187 19.9844V16.9844ZM8.33993 8.37608C8.33993 5.87903 9.39746 3.63295 11.0907 2.05912L9.04826 -0.138259C6.76886 1.9804 5.33993 5.0125 5.33993 8.37608H8.33993ZM2.04102 12.1667C2.04102 7.08357 5.43594 2.79595 10.0725 1.46153L9.2428 -1.42145C3.35049 0.27437 -0.958984 5.71592 -0.958984 12.1667H2.04102ZM13.1395 23.3021C7.0141 23.3021 2.04102 18.3208 2.04102 12.1667H-0.958984C-0.958984 19.9693 5.34897 26.3021 13.1395 26.3021V23.3021ZM23.8076 15.2493C22.4744 19.9036 18.1986 23.3021 13.1395 23.3021V26.3021C19.5779 26.3021 25.001 21.9772 26.6916 16.0754L23.8076 15.2493ZM11.0907 2.05912C11.8185 1.38263 11.8811 0.410922 11.5878 -0.285332C11.436 -0.645622 11.1589 -1.01468 10.7297 -1.25552C10.2751 -1.51058 9.74501 -1.56599 9.2428 -1.42145L10.0725 1.46153C9.82899 1.53162 9.52897 1.51073 9.26171 1.36078C9.01979 1.22504 8.88725 1.03167 8.82306 0.879277C8.70492 0.598821 8.71474 0.171747 9.04826 -0.138259L11.0907 2.05912ZM25.4079 16.2703C25.0979 16.6053 24.6706 16.6148 24.3911 16.4976C24.2391 16.4339 24.0458 16.302 23.9097 16.0605C23.7592 15.7936 23.7377 15.4934 23.8076 15.2493L26.6916 16.0754C26.8357 15.5723 26.7792 15.0418 26.5231 14.5875C26.2814 14.1586 25.9117 13.8822 25.5513 13.731C24.855 13.4391 23.8822 13.5022 23.2062 14.2325L25.4079 16.2703Z" fill="#08105D" mask="url(#path-1-inside-1_977_3971)"/>
</svg>
