<svg width="349" height="381" viewBox="0 0 349 381" fill="none" xmlns="http://www.w3.org/2000/svg">
<path d="M71.7881 249.832L156.561 306.082" stroke="#9AEBE7" stroke-width="2" stroke-linecap="round"/>
<path d="M170.63 135.882L218.473 168.67" stroke="#9AEBE7" stroke-width="2" stroke-linecap="round"/>
<circle cx="164.535" cy="200.196" r="18.8444" transform="rotate(-11.9731 164.535 200.196)" stroke="#9AEBE7" stroke-width="2"/>
<path d="M167.618 189.166C172.232 192.447 179.46 200.659 171.456 207.264" stroke="#9AEBE7" stroke-width="2" stroke-linecap="round"/>
<circle cx="167.572" cy="210.643" r="1.5" transform="rotate(-11.9731 167.572 210.643)" fill="#9AEBE7"/>
<path d="M80.3865 286.377C70.4258 295.645 51.678 317.306 64.138 356.78C79.0145 351.41 115.008 345.992 125.547 316.156" stroke="#9AEBE7" stroke-width="2" stroke-linecap="round"/>
<path d="M91.8638 292.633C86.5843 297.576 76.6505 309.132 83.2938 330.228C91.1854 327.371 108.727 324.835 114.298 308.905" stroke="#9AEBE7" stroke-opacity="0.6" stroke-width="2" stroke-linecap="round"/>
<path d="M58.2307 270.688L98.904 208.121M58.2307 270.688L29.5342 262.304C24.055 260.704 21.4216 254.438 24.579 249.683C48.3338 213.904 83.3171 206.885 98.904 208.121M58.2307 270.688L82.9805 287.108L115.629 308.769L143.538 327.285M143.538 327.285L183.516 265.788M143.538 327.285L160.495 347.401C163.942 351.49 170.214 351.703 173.561 347.531C201.56 312.625 192.335 278.974 183.516 265.788M183.516 265.788L199.855 240.654C226.7 199.359 219.965 154.664 211.776 133.07C210.561 129.869 207.432 127.861 204.011 128.016C164.834 129.793 134.087 156.793 123.238 170.688L98.904 208.121" stroke="white" stroke-width="2.5"/>
<path d="M156.954 103.54C134.234 82.9639 149.994 66.713 163.279 55.2194C176.564 43.7258 218.288 22.3218 255.266 30.6335C292.157 41.5385 265.633 73.5096 252.214 76.3553C269.502 73.2183 303.342 58.8469 293.044 35.9542C281.468 10.2216 230.06 11.9604 206.149 16.9254C197.224 18.9237 175.602 26.7678 160.509 42.1578" stroke="white" stroke-width="2"/>
<path d="M326.032 26.5457C348.668 47.1395 332.996 63.3717 319.784 74.8499C306.571 86.3281 265.06 107.687 228.244 99.341C191.513 88.4022 217.883 56.4636 231.237 53.6316C214.032 56.751 180.362 71.0865 190.635 93.9845C202.183 119.723 253.353 118.035 277.149 113.094C286.03 111.105 307.545 103.284 322.554 87.9115" stroke="white" stroke-width="2"/>
</svg>
