<svg width="24" height="24" viewBox="0 0 24 24" fill="none" xmlns="http://www.w3.org/2000/svg">
<circle cx="12" cy="12" r="12" fill="#36466B"/>
<path d="M13.4098 14.0873L13.8373 13.8279L13.6912 13.5873H13.4098V14.0873ZM15.1826 15.1304L15.1266 15.6272L15.6826 15.6899V15.1304H15.1826ZM15.1826 13.999L15.0132 13.5286L14.6826 13.6476V13.999H15.1826ZM6.76123 7.76123C6.76123 7.20895 7.20895 6.76123 7.76123 6.76123V5.76123C6.65666 5.76123 5.76123 6.65666 5.76123 7.76123H6.76123ZM6.76123 12.5873V7.76123H5.76123V12.5873H6.76123ZM7.76123 13.5873C7.20894 13.5873 6.76123 13.1396 6.76123 12.5873H5.76123C5.76123 13.6919 6.65666 14.5873 7.76123 14.5873V13.5873ZM13.4098 13.5873H7.76123V14.5873H13.4098V13.5873ZM15.2386 14.6335C14.4421 14.5437 14.0324 14.1495 13.8373 13.8279L12.9823 14.3467C13.3251 14.9116 13.9981 15.4999 15.1266 15.6272L15.2386 14.6335ZM14.6826 13.999V15.1304H15.6826V13.999H14.6826ZM15.6743 12.5873C15.6743 13.0199 15.3994 13.3895 15.0132 13.5286L15.352 14.4694C16.1223 14.192 16.6743 13.4548 16.6743 12.5873H15.6743ZM15.6743 7.76123V12.5873H16.6743V7.76123H15.6743ZM14.6743 6.76123C15.2266 6.76123 15.6743 7.20895 15.6743 7.76123H16.6743C16.6743 6.65666 15.7788 5.76123 14.6743 5.76123V6.76123ZM7.76123 6.76123H14.6743V5.76123H7.76123V6.76123Z" fill="white" fill-opacity="0.8"/>
<path fill-rule="evenodd" clip-rule="evenodd" d="M8.20898 14.0463V14.9351C8.20898 15.6559 8.61024 16.2822 9.20073 16.6042V17.4789V17.9266L9.64556 17.8764C10.6117 17.7674 11.2287 17.3119 11.5859 16.8351H17.022C18.0714 16.8351 18.922 15.9844 18.922 14.9351V10.109C18.922 9.05965 18.0714 8.20898 17.022 8.20898H16.1332C16.2547 8.45826 16.3427 8.72688 16.3914 9.00898H17.022C17.6295 9.00898 18.122 9.50147 18.122 10.109V14.9351C18.122 15.5426 17.6295 16.0351 17.022 16.0351H11.374H11.1487L11.032 16.2277C10.8634 16.5058 10.5487 16.8278 10.0007 16.9921V16.3468V16.0657L9.73625 15.9704C9.31161 15.8175 9.00898 15.4111 9.00898 14.9351V14.3045C8.72688 14.2559 8.45826 14.1679 8.20898 14.0463Z" fill="#91DDDD"/>
<circle cx="8.86988" cy="10.4348" r="0.521739" fill="white" fill-opacity="0.8"/>
<circle cx="11.4783" cy="10.4348" r="0.521739" fill="white" fill-opacity="0.8"/>
<circle cx="14.0867" cy="10.4348" r="0.521739" fill="white" fill-opacity="0.8"/>
</svg>
