<svg width="24" height="24" viewBox="0 0 24 24" fill="none" xmlns="http://www.w3.org/2000/svg">
<circle cx="12" cy="12" r="12" fill="#36466B"/>
<path d="M17.9999 8.37694L16.6624 9.87368C16.4841 9.97559 16.5881 10.1072 16.6624 10.1603L17.4267 10.8927C17.6051 10.9692 17.7558 10.8609 17.8089 10.7972L19.0827 9.3323C19.2865 9.15397 19.1676 9.00323 19.0827 8.95016L18.3502 8.31325C18.1974 8.21135 18.053 8.31325 17.9999 8.37694Z" stroke="white" stroke-width="0.5"/>
<path d="M11 11.6557L14.3511 8" stroke="white" stroke-width="0.5" stroke-linecap="round"/>
<path d="M12.1885 12.6076L15.5163 8.91797" stroke="white" stroke-width="0.5" stroke-linecap="round"/>
<rect x="10.4679" y="11.7906" width="2.02261" height="0.719057" rx="0.359528" transform="rotate(40.5972 10.4679 11.7906)" stroke="#9AEBE7" stroke-width="0.3"/>
<path d="M17.2973 7.99454L16.2485 9.20467C16.0957 9.45943 15.9088 9.31082 15.8345 9.20467L14.1786 7.67608C14.8664 6.5806 13.3612 5.98827 12.5226 5.82904C11.8857 5.72714 12.1723 5.48936 12.3952 5.38321C13.72 4.51701 15.0915 5.31951 15.6116 5.82904L17.3631 7.45316C17.5669 7.58055 17.533 7.71854 17.4905 7.77162L17.2973 7.99454ZM17.2973 7.99454L17.8089 8.53591" stroke="white" stroke-width="0.5"/>
<path d="M16.4077 9.04492L16.8854 9.5226" stroke="white" stroke-width="0.5"/>
<rect x="8.42835" y="14.7762" width="1.01877" height="0.227086" rx="0.113543" transform="rotate(42.6872 8.42835 14.7762)" stroke="#9AEBE7" stroke-width="0.227086"/>
<path d="M5.64111 18.2786L6.93086 16.8615L8.26869 15.429C8.27845 15.4185 8.29235 15.413 8.30662 15.4138V15.4138C8.32032 15.4146 8.33249 15.4123 8.34621 15.4125C8.34671 15.4125 8.34724 15.4125 8.34778 15.4125C8.37326 15.4125 8.45889 15.4918 8.50701 15.5399C8.55513 15.588 8.58061 15.6262 8.55513 15.6517C8.52965 15.6772 6.80363 17.573 5.9438 18.5178" stroke="#9AEBE7" stroke-width="0.2"/>
<path fill-rule="evenodd" clip-rule="evenodd" d="M9.91917 13.1452C10.0379 13.0747 10.077 12.9213 10.0065 12.8026C9.93601 12.6839 9.78262 12.6448 9.6639 12.7153C8.85474 13.1957 8.49484 13.4397 8.26509 13.6815L8.26507 13.6815L8.26256 13.6842L5.61938 16.5503L5.60717 16.5635L5.59698 16.5784C5.45209 16.7897 5.28432 17.1416 5.25457 17.5244C5.22999 17.8405 5.30101 18.1832 5.55497 18.4692L5.8936 18.0939C5.77181 17.9335 5.73852 17.7502 5.75306 17.5632C5.77365 17.2984 5.8923 17.037 5.99975 16.8754L8.62881 14.0246C8.80261 13.8421 9.09975 13.6317 9.91917 13.1452ZM6.08827 18.2766L5.74963 18.6485C5.76126 18.6573 5.77313 18.6661 5.78524 18.6747C6.29277 19.0372 6.75003 19.0658 7.14215 18.9007C7.50536 18.7478 7.77831 18.4406 7.96657 18.221L10.1949 15.6743L10.1951 15.6744L10.202 15.6658L10.234 15.6263C10.3839 15.4423 10.6846 15.0732 11.197 13.9581C11.2546 13.8326 11.1997 13.6842 11.0742 13.6266C10.9487 13.5689 10.8003 13.6239 10.7426 13.7494C10.2531 14.8149 9.97493 15.154 9.84216 15.3159L9.81513 15.349L7.58944 17.8927L7.58943 17.8927L7.58777 17.8946C7.39391 18.1208 7.18945 18.3383 6.94812 18.4399C6.73749 18.5286 6.46594 18.542 6.08827 18.2766Z" fill="white"/>
</svg>
