<svg width="24" height="24" viewBox="0 0 24 24" fill="none" xmlns="http://www.w3.org/2000/svg">
<circle cx="12" cy="12" r="12" fill="#36466B"/>
<path d="M19.8262 9.73928L13.3704 5.4354C12.6986 4.98754 11.8234 4.98754 11.1516 5.4354L4.6958 9.73928" stroke="#91DDDD" stroke-opacity="0.8" stroke-width="0.8" stroke-linecap="round"/>
<path d="M6.72168 11.0967L6.44782 10.6783L6.22168 10.8264V11.0967H6.72168ZM12.2202 7.49707L12.4941 7.07874L12.2202 6.89946L11.9464 7.07874L12.2202 7.49707ZM6.72168 16.2963H6.22168V16.7963H6.72168V16.2963ZM10.0626 16.2963V16.7963H10.4485L10.5463 16.4231L10.0626 16.2963ZM10.0803 16.231L10.562 16.3649V16.3649L10.0803 16.231ZM10.5822 15.1121L10.167 14.8334H10.167L10.5822 15.1121ZM11.3332 14.3646L11.5958 14.7901L11.5958 14.7901L11.3332 14.3646ZM14.3582 16.231L14.8399 16.097L14.8399 16.097L14.3582 16.231ZM14.3758 16.2963L13.8922 16.4231L13.99 16.7963H14.3758V16.2963ZM17.7188 16.2963V16.7963H18.2188V16.2963H17.7188ZM17.7188 11.0967H18.2188V10.8264L17.9926 10.6783L17.7188 11.0967ZM6.99554 11.515L12.4941 7.9154L11.9464 7.07874L6.44782 10.6783L6.99554 11.515ZM7.22168 16.2963V11.0967H6.22168V16.2963H7.22168ZM10.0626 15.7963H6.72168V16.7963H10.0626V15.7963ZM9.59856 16.097C9.59186 16.1211 9.58533 16.1453 9.57897 16.1695L10.5463 16.4231C10.5514 16.4036 10.5566 16.3842 10.562 16.3649L9.59856 16.097ZM10.167 14.8334C9.91876 15.2033 9.72745 15.6335 9.59856 16.097L10.562 16.3649C10.6658 15.9916 10.8156 15.6615 10.9973 15.3908L10.167 14.8334ZM11.0707 13.939C10.7197 14.1556 10.4151 14.4638 10.167 14.8334L10.9973 15.3908C11.1791 15.12 11.3851 14.9201 11.5958 14.7901L11.0707 13.939ZM12.2192 13.6021C11.8146 13.6021 11.4235 13.7214 11.0707 13.939L11.5958 14.7901C11.8048 14.6611 12.0158 14.6021 12.2192 14.6021V13.6021ZM13.3678 13.939C13.015 13.7214 12.6239 13.6021 12.2192 13.6021V14.6021C12.4226 14.6021 12.6337 14.6611 12.8427 14.7901L13.3678 13.939ZM14.2714 14.8334C14.0233 14.4638 13.7188 14.1556 13.3678 13.939L12.8427 14.7901C13.0534 14.9201 13.2593 15.12 13.4412 15.3908L14.2714 14.8334ZM14.8399 16.097C14.711 15.6335 14.5197 15.2033 14.2714 14.8334L13.4412 15.3908C13.6229 15.6615 13.7726 15.9916 13.8765 16.3649L14.8399 16.097ZM14.8595 16.1695C14.8531 16.1453 14.8466 16.1211 14.8399 16.097L13.8765 16.3649C13.8818 16.3842 13.8871 16.4036 13.8922 16.4231L14.8595 16.1695ZM17.7188 15.7963H14.3758V16.7963H17.7188V15.7963ZM17.2188 11.0967V16.2963H18.2188V11.0967H17.2188ZM11.9464 7.9154L17.4449 11.515L17.9926 10.6783L12.4941 7.07874L11.9464 7.9154Z" fill="white" fill-opacity="0.8"/>
</svg>
