<svg width="24" height="24" viewBox="0 0 24 24" fill="none" xmlns="http://www.w3.org/2000/svg">
<circle cx="12" cy="12" r="12" fill="#36466B"/>
<path d="M16.1572 15.8607H10.58M14.0822 14.6865H12.6348" stroke="white" stroke-opacity="0.8" stroke-width="0.3" stroke-linecap="round"/>
<mask id="path-3-inside-1_1297_701" fill="white">
<path fill-rule="evenodd" clip-rule="evenodd" d="M8.24459 11.7758C7.89976 11.8648 7.64502 12.1779 7.64502 12.5505V16.8213C7.64502 17.2631 8.00319 17.6213 8.44502 17.6213H17.4124C17.8543 17.6213 18.2124 17.2631 18.2124 16.8213V12.5505C18.2124 12.1087 17.8543 11.7505 17.4124 11.7505H11.0486C11.0573 11.7682 11.0632 11.7872 11.0662 11.8068L11.45 14.2842C11.4761 14.4527 11.2925 14.5779 11.1474 14.4904L9.15659 13.2891C9.12868 13.2723 9.10547 13.2488 9.089 13.2206L8.24459 11.7758Z"/>
</mask>
<path d="M8.24459 11.7758L8.93528 11.3721L8.6302 10.8501L8.04476 11.0012L8.24459 11.7758ZM11.0486 11.7505V10.9505H9.76879L10.3295 12.101L11.0486 11.7505ZM11.0662 11.8068L10.2757 11.9293L10.2757 11.9293L11.0662 11.8068ZM11.45 14.2842L10.6594 14.4066V14.4066L11.45 14.2842ZM11.1474 14.4904L10.7341 15.1754L10.7341 15.1754L11.1474 14.4904ZM9.15659 13.2891L8.74328 13.9741L8.74328 13.9741L9.15659 13.2891ZM9.089 13.2206L9.77969 12.8169L9.77969 12.8169L9.089 13.2206ZM8.44502 12.5505L8.44443 12.5504L8.04476 11.0012C7.35528 11.179 6.84502 11.8042 6.84502 12.5505H8.44502ZM8.44502 16.8213V12.5505H6.84502V16.8213H8.44502ZM8.44502 16.8213H8.44502H6.84502C6.84502 17.7049 7.56136 18.4213 8.44502 18.4213V16.8213ZM17.4124 16.8213H8.44502V18.4213H17.4124V16.8213ZM17.4124 16.8213V16.8213V18.4213C18.2961 18.4213 19.0124 17.7049 19.0124 16.8213H17.4124ZM17.4124 12.5505V16.8213H19.0124V12.5505H17.4124ZM17.4124 12.5505H19.0124C19.0124 11.6668 18.2961 10.9505 17.4124 10.9505V12.5505ZM11.0486 12.5505H17.4124V10.9505H11.0486V12.5505ZM10.3295 12.101C10.3029 12.0464 10.2848 11.9885 10.2757 11.9293L11.8568 11.6844C11.8416 11.5859 11.8116 11.49 11.7678 11.4L10.3295 12.101ZM10.2757 11.9293L10.6594 14.4066L12.2406 14.1617L11.8568 11.6844L10.2757 11.9293ZM10.6594 14.4066C10.5845 13.923 11.1082 13.5324 11.5607 13.8054L10.7341 15.1754C11.4767 15.6234 12.3677 14.9825 12.2406 14.1617L10.6594 14.4066ZM11.5607 13.8054L9.56989 12.6042L8.74328 13.9741L10.7341 15.1754L11.5607 13.8054ZM9.5699 12.6042C9.65667 12.6565 9.72876 12.7298 9.77969 12.8169L8.39831 13.6242C8.48218 13.7677 8.60069 13.8881 8.74328 13.9741L9.5699 12.6042ZM9.77969 12.8169L8.93528 11.3721L7.55391 12.1795L8.39832 13.6243L9.77969 12.8169Z" fill="#98D7D7" fill-opacity="0.8" mask="url(#path-3-inside-1_1297_701)"/>
<path fill-rule="evenodd" clip-rule="evenodd" d="M4.48752 5.92986C4.11349 6.16505 4.00094 6.65892 4.23613 7.03295L8.29824 13.493C8.36814 13.6042 8.46433 13.6965 8.57831 13.7616L10.6504 14.9467C11.206 15.2644 11.8912 14.8336 11.8455 14.1952L11.6753 11.8142C11.6659 11.6833 11.6245 11.5566 11.5546 11.4454L7.49247 4.98535C7.25728 4.61133 6.76342 4.49877 6.38939 4.73396L4.48752 5.92986ZM8.77738 12.3764L5.18914 6.66995L6.75239 5.68698L10.3621 11.4277L8.77738 12.3764ZM9.47654 13.1234L10.8213 13.8925L10.7134 12.3829L9.47654 13.1234Z" fill="white" fill-opacity="0.8"/>
</svg>
