<svg width="15" height="15" viewBox="0 0 15 15" fill="none" xmlns="http://www.w3.org/2000/svg">
<mask id="path-1-inside-1_786_2856" fill="white">
<path fill-rule="evenodd" clip-rule="evenodd" d="M14.381 9.88602C14.594 9.39135 13.869 9.05933 13.4457 9.39224C12.4262 10.194 11.1402 10.6722 9.74265 10.6722C6.43144 10.6722 3.74717 7.9879 3.74717 4.67669C3.74717 3.27909 4.22538 1.99319 5.0271 0.97367C5.36001 0.550317 5.02799 -0.17465 4.53332 0.038325C1.86687 1.18633 0 3.83765 0 6.925C0 11.064 3.35533 14.4193 7.49435 14.4193C10.5817 14.4193 13.233 12.5525 14.381 9.88602Z"/>
</mask>
<path fill-rule="evenodd" clip-rule="evenodd" d="M14.381 9.88602C14.594 9.39135 13.869 9.05933 13.4457 9.39224C12.4262 10.194 11.1402 10.6722 9.74265 10.6722C6.43144 10.6722 3.74717 7.9879 3.74717 4.67669C3.74717 3.27909 4.22538 1.99319 5.0271 0.97367C5.36001 0.550317 5.02799 -0.17465 4.53332 0.038325C1.86687 1.18633 0 3.83765 0 6.925C0 11.064 3.35533 14.4193 7.49435 14.4193C10.5817 14.4193 13.233 12.5525 14.381 9.88602Z" fill="#9AEBE7"/>
<path d="M5.0271 0.97367L4.24103 0.35553L5.0271 0.97367ZM4.53332 0.038325L4.13788 -0.880165L4.53332 0.038325ZM13.4457 9.39224L14.0638 10.1783L13.4457 9.39224ZM14.381 9.88602L13.4625 9.49058L14.381 9.88602ZM12.8275 8.60618C11.978 9.27426 10.9082 9.67217 9.74265 9.67217V11.6722C11.3723 11.6722 12.8744 11.1137 14.0638 10.1783L12.8275 8.60618ZM9.74265 9.67217C6.98372 9.67217 4.74717 7.43562 4.74717 4.67669H2.74717C2.74717 8.54019 5.87915 11.6722 9.74265 11.6722V9.67217ZM4.74717 4.67669C4.74717 3.51118 5.14509 2.44138 5.81317 1.59181L4.24103 0.35553C3.30568 1.54499 2.74717 3.04701 2.74717 4.67669H4.74717ZM1 6.925C1 4.25117 2.61606 1.95252 4.92876 0.956815L4.13788 -0.880165C1.11767 0.420144 -1 3.42413 -1 6.925H1ZM7.49435 13.4193C3.90762 13.4193 1 10.5117 1 6.925H-1C-1 11.6163 2.80305 15.4193 7.49435 15.4193V13.4193ZM13.4625 9.49058C12.4668 11.8033 10.1682 13.4193 7.49435 13.4193V15.4193C10.9952 15.4193 13.9992 13.3017 15.2995 10.2815L13.4625 9.49058ZM5.81317 1.59181C6.25469 1.03034 6.23337 0.319554 5.98592 -0.17796C5.85671 -0.437747 5.63228 -0.710581 5.28941 -0.87084C4.92148 -1.04281 4.50947 -1.04015 4.13788 -0.880165L4.92876 0.956815C4.8045 1.01031 4.6195 1.02372 4.44255 0.94102C4.29065 0.870023 4.22118 0.764957 4.19519 0.712709C4.15419 0.630273 4.13242 0.493648 4.24103 0.35553L5.81317 1.59181ZM14.0638 10.1783C13.9257 10.2869 13.7891 10.2652 13.7066 10.2242C13.6544 10.1982 13.5493 10.1287 13.4783 9.97679C13.3956 9.79985 13.409 9.61484 13.4625 9.49058L15.2995 10.2815C15.4595 9.90987 15.4621 9.49786 15.2902 9.12994C15.1299 8.78706 14.8571 8.56264 14.5973 8.43342C14.0998 8.18597 13.389 8.16465 12.8275 8.60618L14.0638 10.1783Z" fill="white" fill-opacity="0.8" mask="url(#path-1-inside-1_786_2856)"/>
</svg>
