<svg width="15" height="16" viewBox="0 0 15 16" fill="none" xmlns="http://www.w3.org/2000/svg">
<mask id="path-1-inside-1_1152_2090" fill="white">
<path fill-rule="evenodd" clip-rule="evenodd" d="M14.9547 8.64335C13.9225 10.4525 11.9755 11.6721 9.74352 11.6721C6.43231 11.6721 3.74805 8.98779 3.74805 5.67658C3.74805 3.4439 4.96846 1.49625 6.77859 0.464355C2.97533 0.824706 0 4.02737 0 7.92496C0 12.064 3.35533 15.4193 7.49435 15.4193C11.391 15.4193 14.5931 12.4454 14.9547 8.64335Z"/>
</mask>
<path fill-rule="evenodd" clip-rule="evenodd" d="M14.9547 8.64335C13.9225 10.4525 11.9755 11.6721 9.74352 11.6721C6.43231 11.6721 3.74805 8.98779 3.74805 5.67658C3.74805 3.4439 4.96846 1.49625 6.77859 0.464355C2.97533 0.824706 0 4.02737 0 7.92496C0 12.064 3.35533 15.4193 7.49435 15.4193C11.391 15.4193 14.5931 12.4454 14.9547 8.64335Z" fill="#9AEBE7"/>
<path d="M14.9547 8.64335L15.9502 8.73803L14.0861 8.1478L14.9547 8.64335ZM6.77859 0.464355L7.27384 1.33311L6.68427 -0.531186L6.77859 0.464355ZM14.0861 8.1478C13.2246 9.65777 11.6019 10.6721 9.74352 10.6721V12.6721C12.349 12.6721 14.6204 11.2472 15.8233 9.13891L14.0861 8.1478ZM9.74352 10.6721C6.9846 10.6721 4.74805 8.43551 4.74805 5.67658H2.74805C2.74805 9.54008 5.88003 12.6721 9.74352 12.6721V10.6721ZM4.74805 5.67658C4.74805 3.81757 5.76302 2.19437 7.27384 1.33311L6.28335 -0.404397C4.1739 0.798128 2.74805 3.07022 2.74805 5.67658H4.74805ZM1 7.92496C1 4.54802 3.5782 1.77206 6.87292 1.4599L6.68427 -0.531186C2.37245 -0.122652 -1 3.50673 -1 7.92496H1ZM7.49435 14.4193C3.90762 14.4193 1 11.5117 1 7.92496H-1C-1 12.6163 2.80305 16.4193 7.49435 16.4193V14.4193ZM13.9592 8.54868C13.646 11.8423 10.8705 14.4193 7.49435 14.4193V16.4193C11.9116 16.4193 15.5403 13.0484 15.9502 8.73803L13.9592 8.54868Z" fill="#9AEBE7" mask="url(#path-1-inside-1_1152_2090)"/>
</svg>
