<svg width="82" height="47" viewBox="0 0 82 47" fill="none" xmlns="http://www.w3.org/2000/svg">
<circle cx="43.9033" cy="24.5" r="22" stroke="white"/>
<path d="M21.9896 29.0777C11.1563 38.7444 0.803497 51.8 50.4035 33C85.8175 15.4236 77.9034 10.3334 61.9034 11" stroke="#9AEBE7" stroke-linecap="round"/>
<path d="M9.06835 6.02419C9.51898 4.63732 11.481 4.63732 11.9316 6.02419C12.267 7.05644 13.229 7.75532 14.3143 7.75532C15.7726 7.75532 16.3789 9.62134 15.1992 10.4785C14.3211 11.1164 13.9536 12.2473 14.289 13.2795C14.7397 14.6664 13.1523 15.8196 11.9726 14.9625C11.0945 14.3245 9.90549 14.3245 9.02741 14.9625C7.84767 15.8196 6.26034 14.6664 6.71096 13.2795C7.04636 12.2473 6.67893 11.1164 5.80085 10.4785C4.62111 9.62134 5.22741 7.75532 6.68565 7.75532C7.77102 7.75532 8.73296 7.05644 9.06835 6.02419Z" stroke="#9AEBE7"/>
<path d="M75.3857 30.5086C75.5791 29.9135 76.4209 29.9135 76.6143 30.5086C76.8346 31.1868 77.4666 31.6459 78.1796 31.6459C78.8053 31.6459 79.0655 32.4466 78.5593 32.8143C77.9824 33.2335 77.741 33.9764 77.9614 34.6545C78.1547 35.2496 77.4736 35.7444 76.9674 35.3766C76.3906 34.9575 75.6094 34.9575 75.0326 35.3766C74.5264 35.7444 73.8453 35.2496 74.0386 34.6545C74.259 33.9764 74.0176 33.2335 73.4407 32.8143C72.9345 32.4466 73.1947 31.6459 73.8204 31.6459C74.5334 31.6459 75.1654 31.1868 75.3857 30.5086Z" stroke="#9AEBE7"/>
</svg>
