<svg width="377" height="191" viewBox="0 0 377 191" fill="none" xmlns="http://www.w3.org/2000/svg">
<g filter="url(#filter0_d_977_13057)">
<path d="M373 0C373 24.0319 368.228 47.8285 358.956 70.0311C349.684 92.2336 336.094 112.407 318.961 129.401C301.829 146.394 281.49 159.873 259.105 169.07C236.721 178.267 212.729 183 188.5 183C164.271 183 140.279 178.267 117.895 169.07C95.5103 159.873 75.1712 146.394 58.0388 129.401C40.9064 112.407 27.3162 92.2336 18.0442 70.0311C8.77223 47.8285 4 24.0319 4 -1.52588e-05L188.5 0H373Z" fill="url(#paint0_linear_977_13057)" shape-rendering="crispEdges"/>
</g>
<defs>
<filter id="filter0_d_977_13057" x="0" y="0" width="377" height="191" filterUnits="userSpaceOnUse" color-interpolation-filters="sRGB">
<feFlood flood-opacity="0" result="BackgroundImageFix"/>
<feColorMatrix in="SourceAlpha" type="matrix" values="0 0 0 0 0 0 0 0 0 0 0 0 0 0 0 0 0 0 127 0" result="hardAlpha"/>
<feOffset dy="4"/>
<feGaussianBlur stdDeviation="2"/>
<feComposite in2="hardAlpha" operator="out"/>
<feColorMatrix type="matrix" values="0 0 0 0 0 0 0 0 0 0 0 0 0 0 0 0 0 0 0.25 0"/>
<feBlend mode="normal" in2="BackgroundImageFix" result="effect1_dropShadow_977_13057"/>
<feBlend mode="normal" in="SourceGraphic" in2="effect1_dropShadow_977_13057" result="shape"/>
</filter>
<linearGradient id="paint0_linear_977_13057" x1="188.5" y1="-57" x2="188.5" y2="183" gradientUnits="userSpaceOnUse">
<stop stop-color="#365796"/>
<stop offset="1" stop-color="#C4C4C4" stop-opacity="0.45"/>
</linearGradient>
</defs>
</svg>
