<svg width="40" height="48" viewBox="0 0 40 48" fill="none" xmlns="http://www.w3.org/2000/svg">
<path d="M26.3674 35.4851C26.6486 34.6196 27.873 34.6196 28.1543 35.4851C28.4808 36.4902 29.4175 37.1706 30.4743 37.1706C31.3843 37.1706 31.7626 38.3351 31.0264 38.87C30.1714 39.4912 29.8137 40.5923 30.1403 41.5974C30.4215 42.4628 29.4309 43.1825 28.6947 42.6476C27.8397 42.0265 26.682 42.0265 25.827 42.6476C25.0908 43.1825 24.1002 42.4628 24.3814 41.5974C24.708 40.5923 24.3502 39.4912 23.4952 38.87C22.759 38.3351 23.1374 37.1706 24.0474 37.1706C25.1042 37.1706 26.0408 36.4902 26.3674 35.4851Z" stroke="#C6D3EC" stroke-opacity="0.8" stroke-width="1.5"/>
<line x1="17.9117" y1="34.6324" x2="2.83576" y2="16.4373" stroke="#C6D3EC" stroke-opacity="0.8" stroke-width="1.5" stroke-linecap="round"/>
<line x1="18.4649" y1="28.8328" x2="0.907158" y2="7.86831" stroke="#C6D3EC" stroke-opacity="0.8" stroke-width="1.5" stroke-linecap="round"/>
<line x1="20.8266" y1="34.6994" x2="12.8538" y2="25.132" stroke="#C6D3EC" stroke-opacity="0.8" stroke-width="0.5" stroke-linecap="round"/>
<line x1="12.811" y1="18.6662" x2="4.83814" y2="9.09882" stroke="#C6D3EC" stroke-opacity="0.8" stroke-width="0.5" stroke-linecap="round"/>
<line x1="26.4811" y1="32.6971" x2="11.4051" y2="14.502" stroke="#C6D3EC" stroke-opacity="0.8" stroke-width="1.5" stroke-linecap="round"/>
<path d="M32.1634 21.456C32.3163 20.9854 32.982 20.9854 33.1349 21.456C33.4041 22.2844 34.1762 22.8454 35.0473 22.8454C35.542 22.8454 35.7478 23.4785 35.3475 23.7693C34.6427 24.2813 34.3478 25.1889 34.617 26.0174C34.7699 26.4879 34.2314 26.8792 33.8311 26.5884C33.1263 26.0764 32.172 26.0764 31.4673 26.5884C31.067 26.8792 30.5285 26.4879 30.6814 26.0174C30.9505 25.1889 30.6556 24.2813 29.9509 23.7693C29.5506 23.4785 29.7563 22.8454 30.2511 22.8454C31.1222 22.8454 31.8943 22.2844 32.1634 21.456Z" stroke="#C6D3EC" stroke-opacity="0.8" stroke-width="1.5"/>
<line x1="25.8165" y1="16.4097" x2="12.958" y2="1.05635" stroke="#C6D3EC" stroke-opacity="0.8" stroke-width="1.5" stroke-linecap="round"/>
<line x1="27.7583" y1="20.8034" x2="21.8896" y2="13.761" stroke="#C6D3EC" stroke-opacity="0.8" stroke-width="0.5" stroke-linecap="round"/>
<line x1="31.7994" y1="19.2926" x2="20.7915" y2="6.00719" stroke="#C6D3EC" stroke-opacity="0.8" stroke-width="1.5" stroke-linecap="round"/>
</svg>
