<svg width="32" height="32" viewBox="0 0 32 32" fill="none" xmlns="http://www.w3.org/2000/svg">
<circle cx="16" cy="16" r="15.25" stroke="#C6D3EC" stroke-width="1.5"/>
<line x1="12.8596" y1="17.6593" x2="17.4266" y2="21.0846" stroke="#9AEBE7"/>
<line x1="17.4721" y1="12.1563" x2="12.8332" y2="15.4836" stroke="#9AEBE7"/>
<circle cx="10.1667" cy="16.5002" r="2.66667" stroke="white"/>
<circle cx="19.6667" cy="22.8332" r="2.66667" stroke="white"/>
<path fill-rule="evenodd" clip-rule="evenodd" d="M19.6667 12.3333C20.8633 12.3333 21.8333 11.3633 21.8333 10.1667C21.8333 8.97005 20.8633 8 19.6667 8C18.47 8 17.5 8.97005 17.5 10.1667C17.5 11.3633 18.47 12.3333 19.6667 12.3333ZM19.6667 13.3333C21.4156 13.3333 22.8333 11.9156 22.8333 10.1667C22.8333 8.41777 21.4156 7 19.6667 7C17.9178 7 16.5 8.41777 16.5 10.1667C16.5 11.9156 17.9178 13.3333 19.6667 13.3333Z" fill="white"/>
</svg>
