<svg width="16" height="31" viewBox="0 0 16 31" fill="none" xmlns="http://www.w3.org/2000/svg">
<path d="M1.80469 21.1389L2.66675 28.3325C7.35974 31.3525 12.0373 29.5909 13.7895 28.3325L14.6936 21.1389C10.8248 22.6657 4.489 21.7751 1.80469 21.1389Z" stroke="white"/>
<path d="M1.73407 21.3446C1.56135 21.2583 1.17272 21.051 1 20.9128V19.2288C3.34616 20.0852 9.50663 21.2842 15.3792 19.2288V20.9128C15.2209 21.0496 14.887 21.3187 14.8179 21.3014" stroke="white"/>
<path d="M1.04297 19.2722L4.5838 10.9814C5.63453 11.3557 8.59962 11.8796 12.0541 10.9814L15.2927 19.2722" stroke="white"/>
<path d="M12.0538 10.9814L12.2913 10.8303V9.81556C12.0178 9.4917 10.8318 8.86558 8.27548 8.95194C5.71917 9.0383 4.54753 9.56367 4.28125 9.81556V10.8303L4.56193 10.9814" stroke="white"/>
<path d="M4.2168 9.85864C5.51222 10.3192 8.94078 10.9641 12.2916 9.85864" stroke="white"/>
<path d="M8.08203 1.13665V9.47055C8.2893 9.64328 8.48505 9.54252 8.55702 9.47055V1.13665C8.39695 0.983597 8.30238 0.927455 8.08203 1.13665Z" stroke="white"/>
</svg>
