<svg width="17" height="16" viewBox="0 0 17 16" fill="none" xmlns="http://www.w3.org/2000/svg">
<mask id="path-1-inside-1_1319_7272" fill="white">
<path fill-rule="evenodd" clip-rule="evenodd" d="M16.0481 8.75099C14.9404 10.6863 12.8511 11.9908 10.4562 11.9908C6.90285 11.9908 4.02232 9.11902 4.02232 5.57643C4.02232 3.18773 5.33198 1.10398 7.27447 -1.68346e-05C3.193 0.385397 0 3.81191 0 7.98193C0 12.4102 3.60066 16 8.0423 16C12.2237 16 15.6599 12.8184 16.0481 8.75099Z"/>
</mask>
<path d="M16.0481 8.751L17.0436 8.84602L15.1802 8.25424L16.0481 8.751ZM7.27447 0L7.76858 0.869397L7.18045 -0.995571L7.27447 0ZM15.1802 8.25424C14.2439 9.89011 12.4791 10.9909 10.4562 10.9909V12.9909C13.2231 12.9909 15.6369 11.4824 16.916 9.24776L15.1802 8.25424ZM10.4562 10.9909C7.45228 10.9909 5.02232 8.5639 5.02232 5.57645H3.02232C3.02232 9.67417 6.35342 12.9909 10.4562 12.9909V10.9909ZM5.02232 5.57645C5.02232 3.56292 6.1251 1.80345 7.76858 0.869397L6.78035 -0.869397C4.53885 0.404541 3.02232 2.81256 3.02232 5.57645H5.02232ZM1 7.98195C1 4.33514 3.79324 1.33318 7.36848 0.995571L7.18045 -0.995571C2.59276 -0.562354 -1 3.28871 -1 7.98195H1ZM8.0423 15C4.15009 15 1 11.855 1 7.98195H-1C-1 12.9653 3.05123 17 8.0423 17V15ZM15.0526 8.65598C14.7131 12.2128 11.7058 15 8.0423 15V17C12.7417 17 16.6066 13.4242 17.0436 8.84602L15.0526 8.65598Z" fill="white" mask="url(#path-1-inside-1_1319_7272)"/>
</svg>
