<svg width="18" height="18" viewBox="0 0 18 18" fill="none" xmlns="http://www.w3.org/2000/svg">
<path d="M16.875 7.87629C16.5769 7.87629 16.2909 7.99464 16.08 8.20534C15.869 8.41604 15.7503 8.70185 15.75 9C15.75 10.7902 15.0388 12.5071 13.773 13.773C12.5071 15.0388 10.7902 15.75 9 15.75C7.20979 15.75 5.4929 15.0388 4.22703 13.773C2.96116 12.5071 2.25 10.7902 2.25 9C2.25 8.70163 2.13147 8.41548 1.9205 8.2045C1.70952 7.99353 1.42337 7.875 1.125 7.875C0.826631 7.875 0.540483 7.99353 0.329505 8.2045C0.118526 8.41548 0 8.70163 0 9C0 11.3869 0.948211 13.6761 2.63604 15.364C4.32387 17.0518 6.61305 18 9 18C11.3869 18 13.6761 17.0518 15.364 15.364C17.0518 13.6761 18 11.3869 18 9C17.9997 8.70185 17.881 8.41604 17.67 8.20534C17.4591 7.99464 17.1731 7.87629 16.875 7.87629Z" fill="#08105D"/>
<path d="M9 13.5C10.1924 13.4966 11.3351 13.0214 12.1782 12.1782C13.0214 11.3351 13.4966 10.1924 13.5 9V4.5C13.5 3.30653 13.0259 2.16193 12.182 1.31802C11.3381 0.474106 10.1935 0 9 0C7.80652 0 6.66193 0.474106 5.81802 1.31802C4.97411 2.16193 4.5 3.30653 4.5 4.5V9C4.50339 10.1924 4.97859 11.3351 5.82177 12.1782C6.66495 13.0214 7.80757 13.4966 9 13.5Z" fill="#08105D"/>
</svg>
