<svg width="46" height="46" viewBox="0 0 46 46" fill="none" xmlns="http://www.w3.org/2000/svg">
<circle cx="22.7624" cy="22.8786" r="22.6969" fill="#C4C4C4"/>
<g clip-path="url(#clip0_691_7056)">
<path d="M14.6177 23.8302V21.9266C14.6177 21.1693 14.9185 20.443 15.454 19.9075C15.9895 19.372 16.7158 19.0712 17.4731 19.0712H17.7206C18.6228 19.0721 19.5185 18.9171 20.3679 18.613L25.694 14.0484C26.2115 13.6045 26.8709 13.3604 27.5527 13.3604V13.3604C28.0298 13.3604 28.4874 13.5499 28.8248 13.8872C29.1621 14.2246 29.3516 14.6822 29.3516 15.1593V30.5976C29.3516 31.0747 29.1621 31.5322 28.8248 31.8696C28.4874 32.207 28.0298 32.3965 27.5527 32.3965C26.8709 32.3964 26.2115 32.1524 25.694 31.7085L20.3679 27.1439C19.5185 26.8397 18.6228 26.6847 17.7206 26.6856H17.4731C16.7158 26.6856 15.9895 26.3848 15.454 25.8493C14.9185 25.3138 14.6177 24.5875 14.6177 23.8302Z" fill="#6B6B6B"/>
</g>
<defs>
<clipPath id="clip0_691_7056">
<rect width="19.0361" height="19.0361" fill="white" transform="translate(12.5122 13.3604)"/>
</clipPath>
</defs>
</svg>
