<svg width="24" height="24" viewBox="0 0 24 24" fill="none" xmlns="http://www.w3.org/2000/svg">
<path fill-rule="evenodd" clip-rule="evenodd" d="M16.1658 4.76492L11.8286 9.09863L7.4915 4.76149C7.263 4.52352 6.98929 4.33355 6.68642 4.20273C6.38355 4.07191 6.05761 4.00286 5.72772 3.99963C5.39782 3.9964 5.07059 4.05906 4.76522 4.18394C4.45985 4.30881 4.18248 4.49338 3.94936 4.72684C3.71625 4.9603 3.53208 5.23794 3.40766 5.54349C3.28323 5.84904 3.22105 6.17636 3.22477 6.50625C3.22848 6.83615 3.298 7.16198 3.42927 7.46466C3.56054 7.76734 3.75091 8.04076 3.98921 8.26892L8.32464 12.6061L3.99264 16.9381C3.53974 17.406 3.28886 18.0332 3.2941 18.6844C3.29934 19.3356 3.56027 19.9586 4.02064 20.4192C4.48101 20.8798 5.10394 21.1411 5.75513 21.1466C6.40633 21.1522 7.03363 20.9016 7.50178 20.4489L11.8286 16.1083L16.1624 20.4438C16.391 20.6813 16.6648 20.8708 16.9676 21.0013C17.2703 21.1318 17.5961 21.2006 17.9258 21.2037C18.2555 21.2069 18.5825 21.1442 18.8877 21.0195C19.1929 20.8948 19.4702 20.7104 19.7033 20.4773C19.9365 20.2442 20.1208 19.9669 20.2455 19.6617C20.3702 19.3565 20.4329 19.0295 20.4298 18.6998C20.4266 18.3701 20.3578 18.0443 20.2273 17.7416C20.0968 17.4388 19.9073 17.165 19.6698 16.9363L15.3429 12.6078L19.6749 8.27578C20.1278 7.80784 20.3787 7.18066 20.3735 6.52946C20.3682 5.87827 20.1073 5.25521 19.6469 4.79461C19.1866 4.33402 18.5636 4.07279 17.9124 4.06723C17.2612 4.06168 16.6339 4.31225 16.1658 4.76492Z" fill="#C6D3EC"/>
</svg>
