<svg width="20" height="20" viewBox="0 0 20 20" fill="none" xmlns="http://www.w3.org/2000/svg">
<g clip-path="url(#clip0_633_883)">
<path fill-rule="evenodd" clip-rule="evenodd" d="M17.4512 12.5C17.9456 12.5 18.429 12.3534 18.8401 12.0787C19.2512 11.804 19.5717 11.4135 19.7609 10.9567C19.9501 10.4999 19.9996 9.99723 19.9031 9.51227C19.8067 9.02732 19.5686 8.58187 19.2189 8.23223C18.8693 7.8826 18.4239 7.6445 17.9389 7.54804C17.4539 7.45157 16.9513 7.50108 16.4945 7.6903C16.0376 7.87952 15.6472 8.19995 15.3725 8.61107C15.0978 9.0222 14.9512 9.50555 14.9512 10C14.951 10.3284 15.0155 10.6535 15.1411 10.9569C15.2667 11.2603 15.4508 11.536 15.683 11.7682C15.9152 12.0004 16.1908 12.1845 16.4942 12.3101C16.7976 12.4356 17.1228 12.5002 17.4512 12.5V12.5ZM9.95117 12.5C10.4456 12.5 10.929 12.3534 11.3401 12.0787C11.7512 11.804 12.0717 11.4135 12.2609 10.9567C12.4501 10.4999 12.4996 9.99723 12.4031 9.51227C12.3067 9.02732 12.0686 8.58187 11.7189 8.23223C11.3693 7.8826 10.9239 7.6445 10.4389 7.54804C9.95395 7.45157 9.45128 7.50108 8.99446 7.6903C8.53765 7.87952 8.1472 8.19995 7.8725 8.61107C7.5978 9.0222 7.45117 9.50555 7.45117 10C7.45098 10.3284 7.51552 10.6535 7.64109 10.9569C7.76666 11.2603 7.9508 11.536 8.18299 11.7682C8.41517 12.0004 8.69084 12.1845 8.99424 12.3101C9.29764 12.4356 9.62282 12.5002 9.95117 12.5V12.5ZM2.45117 12.5C2.94563 12.5 3.42898 12.3534 3.8401 12.0787C4.25122 11.804 4.57165 11.4135 4.76087 10.9567C4.95009 10.4999 4.9996 9.99723 4.90314 9.51227C4.80667 9.02732 4.56857 8.58187 4.21894 8.23223C3.86931 7.8826 3.42385 7.6445 2.9389 7.54804C2.45395 7.45157 1.95128 7.50108 1.49446 7.6903C1.03765 7.87952 0.647202 8.19995 0.372498 8.61107C0.0977947 9.0222 -0.0488277 9.50555 -0.0488277 10C-0.0490155 10.3284 0.0155207 10.6535 0.141091 10.9569C0.266661 11.2603 0.450803 11.536 0.682987 11.7682C0.91517 12.0004 1.19084 12.1845 1.49424 12.3101C1.79764 12.4356 2.12281 12.5002 2.45117 12.5V12.5Z" fill="#4E4E4E"/>
</g>
<defs>
<clipPath id="clip0_633_883">
<rect width="20" height="20" fill="white"/>
</clipPath>
</defs>
</svg>
