<svg width="24" height="24" viewBox="0 0 24 24" fill="none" xmlns="http://www.w3.org/2000/svg">
<path fill-rule="evenodd" clip-rule="evenodd" d="M3.19921 8.60548C3.34221 8.96669 3.56592 9.29041 3.85324 9.55188C4.14056 9.81335 4.48388 10.0056 4.85693 10.114L13.0615 11.9998L4.93407 13.7809C4.55242 13.8853 4.20027 14.0771 3.90544 14.341C3.6106 14.6049 3.38116 14.9337 3.23521 15.3015L1.28436 22.114C1.17762 22.3783 1.15588 22.6693 1.22218 22.9466C1.28847 23.2238 1.4395 23.4735 1.65426 23.6609C1.86902 23.8483 2.13684 23.9642 2.42048 23.9923C2.70413 24.0205 2.9895 23.9596 3.23693 23.818L22.1146 13.1998C22.329 13.0812 22.5077 12.9073 22.6321 12.6963C22.7565 12.4852 22.8221 12.2447 22.8221 11.9998C22.8221 11.7548 22.7565 11.5143 22.6321 11.3032C22.5077 11.0922 22.329 10.9184 22.1146 10.7998L3.23693 0.181476C2.9895 0.0399503 2.70413 -0.0209644 2.42048 0.00720126C2.13684 0.035367 1.86902 0.151213 1.65426 0.338634C1.4395 0.526054 1.28847 0.775734 1.22218 1.05296C1.15588 1.33018 1.17762 1.62118 1.28436 1.88548L3.19921 8.60548Z" fill="#9AEBE7"/>
</svg>
