<svg width="37" height="36" viewBox="0 0 37 36" fill="none" xmlns="http://www.w3.org/2000/svg">
<g filter="url(#filter0_d_1495_1067)">
<path d="M23.0527 21.7L23.7869 21.5467L23.6623 20.95H23.0527V21.7ZM28 26.5L27.8919 27.2421L28.75 27.3672V26.5H28ZM28 21.7V20.95H27.25V21.7H28ZM5.75 4C5.75 2.75736 6.75736 1.75 8 1.75V0.25C5.92893 0.25 4.25 1.92893 4.25 4H5.75ZM5.75 18.7V4H4.25V18.7H5.75ZM8 20.95C6.75736 20.95 5.75 19.9426 5.75 18.7H4.25C4.25 20.7711 5.92893 22.45 8 22.45V20.95ZM23.0527 20.95H8V22.45H23.0527V20.95ZM28.1081 25.7578C25.2746 25.3449 24.083 22.965 23.7869 21.5467L22.3185 21.8533C22.6775 23.5728 24.1674 26.6994 27.8919 27.2421L28.1081 25.7578ZM27.25 21.7V26.5H28.75V21.7H27.25ZM28.4705 20.95H28V22.45H28.4705V20.95ZM30.7205 18.7C30.7205 19.9426 29.7132 20.95 28.4705 20.95V22.45C30.5416 22.45 32.2205 20.7711 32.2205 18.7H30.7205ZM30.7205 4V18.7H32.2205V4H30.7205ZM28.4705 1.75C29.7132 1.75 30.7205 2.75736 30.7205 4H32.2205C32.2205 1.92893 30.5416 0.25 28.4705 0.25V1.75ZM8 1.75H28.4705V0.25H8V1.75Z" fill="#43567E"/>
<circle cx="11.5" cy="11.5" r="1.5" fill="#43567E"/>
<circle cx="18.5" cy="11.5" r="1.5" fill="#43567E"/>
<circle cx="25.5" cy="11.5" r="1.5" fill="#43567E"/>
</g>
<defs>
<filter id="filter0_d_1495_1067" x="0.25" y="0.25" width="35.9707" height="35.1172" filterUnits="userSpaceOnUse" color-interpolation-filters="sRGB">
<feFlood flood-opacity="0" result="BackgroundImageFix"/>
<feColorMatrix in="SourceAlpha" type="matrix" values="0 0 0 0 0 0 0 0 0 0 0 0 0 0 0 0 0 0 127 0" result="hardAlpha"/>
<feOffset dy="4"/>
<feGaussianBlur stdDeviation="2"/>
<feComposite in2="hardAlpha" operator="out"/>
<feColorMatrix type="matrix" values="0 0 0 0 0 0 0 0 0 0 0 0 0 0 0 0 0 0 0.25 0"/>
<feBlend mode="normal" in2="BackgroundImageFix" result="effect1_dropShadow_1495_1067"/>
<feBlend mode="normal" in="SourceGraphic" in2="effect1_dropShadow_1495_1067" result="shape"/>
</filter>
</defs>
</svg>
