<svg width="32" height="28" viewBox="0 0 32 28" fill="none" xmlns="http://www.w3.org/2000/svg">
<path fill-rule="evenodd" clip-rule="evenodd" d="M16.2784 2.13622C15.9671 1.95459 15.5821 1.95459 15.2707 2.13622L3.543 8.97738L15.4867 16.1436C15.8033 16.3336 16.199 16.3336 16.5157 16.1436L28.2359 9.11142L16.2784 2.13622ZM30.5811 8.24233C30.5505 8.22696 30.5189 8.21312 30.4866 8.2009C30.4085 8.09614 30.3085 8.00504 30.1886 7.93507L17.2862 0.408663C16.3521 -0.136222 15.197 -0.136221 14.263 0.408663L1.36055 7.93507C0.990024 8.15121 0.810078 8.56886 0.878578 8.96813C0.869269 9.02295 0.864421 9.07929 0.864421 9.13676V24.402C0.864421 24.907 1.00082 25.6587 1.48926 26.2713C2.03972 26.9618 2.9209 27.3276 4.0518 27.1351L3.88394 26.1492L4.05181 27.1351C4.2038 27.1092 4.29774 27.0982 4.37215 27.0982H28.1127C28.417 27.0982 28.7843 27.0555 29.1498 26.8908L28.739 25.9791L29.1498 26.8908C29.5111 26.728 29.9691 26.4668 30.353 26.0955C30.4223 26.0285 30.4922 25.9548 30.5602 25.8746C30.6967 25.8107 30.8208 25.7149 30.9205 25.5885C31.1187 25.3375 31.1773 25.0209 31.1074 24.7324C31.1243 24.6266 31.1334 24.5164 31.1334 24.402V9.20589C31.1471 9.00874 31.1025 8.80558 30.9932 8.62327C30.8911 8.45321 30.7465 8.32441 30.5811 8.24233ZM29.1334 10.9053L20.4983 16.0864L29.1334 22.9036V10.9053ZM18.6728 17.1817L17.5446 17.8586C16.5946 18.4286 15.4077 18.4286 14.4577 17.8586L13.657 17.3782L3.81667 25.1469C3.97326 25.1223 4.1662 25.0982 4.37215 25.0982H28.1127C28.2384 25.0982 28.3018 25.0793 28.3282 25.0674C28.3931 25.0381 28.4588 25.0055 28.5233 24.9701L18.7738 17.2731C18.7376 17.2445 18.7039 17.214 18.6728 17.1817ZM11.8231 16.2778L2.86442 10.9026V23.3505L11.8231 16.2778Z" fill="#465981"/>
<path d="M3 7V8.6875L15.4613 16.6555C15.7897 16.8655 16.2103 16.8655 16.5387 16.6555L29 8.6875V7H3Z" fill="#8EC5CC" stroke="#B6DEDE" stroke-width="0.1"/>
</svg>
