<svg width="30" height="27" viewBox="0 0 30 27" fill="none" xmlns="http://www.w3.org/2000/svg">
<mask id="path-1-inside-1_1495_1020" fill="white">
<path fill-rule="evenodd" clip-rule="evenodd" d="M1 0C0.447715 0 0 0.447716 0 1V19.0547C0 19.607 0.447715 20.0547 1 20.0547H11.3494L14.5 27L17.6506 20.0547H28.3112C28.8634 20.0547 29.3112 19.607 29.3112 19.0547V1C29.3112 0.447715 28.8634 0 28.3112 0H1Z"/>
</mask>
<path d="M11.3494 20.0547L12.7154 19.435L12.3161 18.5547H11.3494V20.0547ZM14.5 27L13.134 27.6197L14.5 30.631L15.866 27.6197L14.5 27ZM17.6506 20.0547V18.5547H16.6839L16.2846 19.435L17.6506 20.0547ZM1.5 1C1.5 1.27614 1.27614 1.5 1 1.5V-1.5C-0.380714 -1.5 -1.5 -0.380709 -1.5 1H1.5ZM1.5 19.0547V1H-1.5V19.0547H1.5ZM1 18.5547C1.27614 18.5547 1.5 18.7786 1.5 19.0547H-1.5C-1.5 20.4354 -0.380714 21.5547 1 21.5547V18.5547ZM11.3494 18.5547H1V21.5547H11.3494V18.5547ZM15.866 26.3803L12.7154 19.435L9.98337 20.6744L13.134 27.6197L15.866 26.3803ZM16.2846 19.435L13.134 26.3803L15.866 27.6197L19.0166 20.6744L16.2846 19.435ZM28.3112 18.5547H17.6506V21.5547H28.3112V18.5547ZM27.8112 19.0547C27.8112 18.7786 28.035 18.5547 28.3112 18.5547V21.5547C29.6919 21.5547 30.8112 20.4354 30.8112 19.0547H27.8112ZM27.8112 1V19.0547H30.8112V1H27.8112ZM28.3112 1.5C28.035 1.5 27.8112 1.27614 27.8112 1H30.8112C30.8112 -0.38071 29.6919 -1.5 28.3112 -1.5V1.5ZM1 1.5H28.3112V-1.5H1V1.5Z" fill="#43567E" mask="url(#path-1-inside-1_1495_1020)"/>
<rect x="5" y="5" width="19" height="1" fill="#43567E"/>
<rect x="5" y="9" width="19" height="1" fill="#43567E"/>
<rect x="5" y="13" width="19" height="1" fill="#43567E"/>
</svg>
