<svg width="30" height="28" viewBox="0 0 30 28" fill="none" xmlns="http://www.w3.org/2000/svg">
<mask id="path-1-inside-1_1207_685" fill="white">
<path fill-rule="evenodd" clip-rule="evenodd" d="M1 0C0.447715 0 0 0.447716 0 1V19.0547C0 19.607 0.447715 20.0547 1 20.0547H4.36492L11.4259 27.1867C11.4839 27.2453 11.5795 27.1942 11.5828 27.1028L11.8345 20.0547H28.3112C28.8634 20.0547 29.3112 19.607 29.3112 19.0547V1C29.3112 0.447715 28.8634 0 28.3112 0H1Z"/>
</mask>
<path d="M4.36492 20.0547L5.7862 18.6476L5.19922 18.0547H4.36492V20.0547ZM11.4259 27.1867L10.0046 28.5938L10.0046 28.5939L11.4259 27.1867ZM11.5828 27.1028L9.58409 27.0314V27.0314L11.5828 27.1028ZM11.8345 20.0547V18.0547H9.90465L9.83578 19.9833L11.8345 20.0547ZM2 1C2 1.55228 1.55229 2 1 2V-2C-0.656857 -2 -2 -0.656851 -2 1H2ZM2 19.0547V1H-2V19.0547H2ZM1 18.0547C1.55229 18.0547 2 18.5024 2 19.0547H-2C-2 20.7116 -0.656857 22.0547 1 22.0547V18.0547ZM4.36492 18.0547H1V22.0547H4.36492V18.0547ZM12.8471 25.7796L5.7862 18.6476L2.94365 21.4618L10.0046 28.5938L12.8471 25.7796ZM9.58409 27.0314C9.60739 26.3788 9.97342 25.7626 10.5819 25.4373C11.2324 25.0895 12.1788 25.1045 12.8471 25.7796L10.0046 28.5939C10.731 29.3275 11.7542 29.3463 12.4679 28.9647C13.1395 28.6057 13.555 27.9182 13.5815 27.1742L9.58409 27.0314ZM9.83578 19.9833L9.58409 27.0314L13.5815 27.1742L13.8332 20.1261L9.83578 19.9833ZM28.3112 18.0547H11.8345V22.0547H28.3112V18.0547ZM27.3112 19.0547C27.3112 18.5024 27.7589 18.0547 28.3112 18.0547V22.0547C29.968 22.0547 31.3112 20.7116 31.3112 19.0547H27.3112ZM27.3112 1V19.0547H31.3112V1H27.3112ZM28.3112 2C27.7589 2 27.3112 1.55228 27.3112 1H31.3112C31.3112 -0.656852 29.968 -2 28.3112 -2V2ZM1 2H28.3112V-2H1V2Z" fill="#43567E" mask="url(#path-1-inside-1_1207_685)"/>
<circle cx="7.62097" cy="9.92029" r="1.75867" fill="#43567E"/>
<circle cx="14.6561" cy="9.92029" r="1.75867" fill="#43567E"/>
<circle cx="21.6893" cy="9.92029" r="1.75867" fill="#43567E"/>
</svg>
