<svg width="17" height="19" viewBox="0 0 17 19" fill="none" xmlns="http://www.w3.org/2000/svg">
<rect y="8" width="16.9998" height="10.9999" rx="2" fill="#08105D"/>
<mask id="path-2-inside-1_717_2642" fill="white">
<path d="M0.000200995 9.00011C0.00020109 7.81822 0.220057 6.64791 0.647218 5.556C1.07438 4.46408 1.70048 3.47194 2.48976 2.63622C3.27905 1.8005 4.21608 1.13758 5.24733 0.685288C6.27859 0.233001 7.38388 0.000212708 8.5001 0.000212814C9.61632 0.000212921 10.7216 0.233003 11.7529 0.685289C12.7841 1.13758 13.7212 1.8005 14.5104 2.63622C15.2997 3.47194 15.9258 4.46408 16.353 5.556C16.7801 6.64791 17 7.81822 17 9.00011L8.5001 9.00011L0.000200995 9.00011Z"/>
</mask>
<path d="M0.000200995 9.00011C0.00020109 7.81822 0.220057 6.64791 0.647218 5.556C1.07438 4.46408 1.70048 3.47194 2.48976 2.63622C3.27905 1.8005 4.21608 1.13758 5.24733 0.685288C6.27859 0.233001 7.38388 0.000212708 8.5001 0.000212814C9.61632 0.000212921 10.7216 0.233003 11.7529 0.685289C12.7841 1.13758 13.7212 1.8005 14.5104 2.63622C15.2997 3.47194 15.9258 4.46408 16.353 5.556C16.7801 6.64791 17 7.81822 17 9.00011L8.5001 9.00011L0.000200995 9.00011Z" stroke="#08105D" stroke-width="4" mask="url(#path-2-inside-1_717_2642)"/>
<circle cx="8.24998" cy="11.75" r="1.74998" fill="#C6D3EC"/>
<rect x="7.5" y="11.9995" width="1.49998" height="4.49995" fill="#C6D3EC"/>
</svg>
