<svg width="14" height="11" viewBox="0 0 14 11" fill="none" xmlns="http://www.w3.org/2000/svg">
<g clip-path="url(#clip0_800_1844)">
<path fill-rule="evenodd" clip-rule="evenodd" d="M12.2158 6.875C12.5619 6.875 12.9003 6.79436 13.1881 6.64327C13.4759 6.49218 13.7002 6.27744 13.8326 6.02619C13.9651 5.77494 13.9997 5.49847 13.9322 5.23175C13.8647 4.96503 13.698 4.72003 13.4533 4.52773C13.2085 4.33543 12.8967 4.20448 12.5572 4.15142C12.2178 4.09837 11.8659 4.1256 11.5461 4.22967C11.2264 4.33374 10.953 4.50997 10.7607 4.73609C10.5685 4.96221 10.4658 5.22805 10.4658 5.5C10.4657 5.6806 10.5109 5.85944 10.5988 6.02631C10.6867 6.19318 10.8156 6.3448 10.9781 6.4725C11.1406 6.6002 11.3336 6.70148 11.546 6.77054C11.7583 6.83961 11.986 6.8751 12.2158 6.875ZM6.96582 6.875C7.31194 6.875 7.65028 6.79436 7.93807 6.64327C8.22585 6.49218 8.45016 6.27744 8.58261 6.02619C8.71506 5.77494 8.74972 5.49847 8.68219 5.23175C8.61467 4.96503 8.448 4.72003 8.20326 4.52773C7.95852 4.33543 7.6467 4.20448 7.30723 4.15142C6.96776 4.09837 6.6159 4.1256 6.29612 4.22967C5.97635 4.33374 5.70304 4.50997 5.51075 4.73609C5.31846 4.96221 5.21582 5.22805 5.21582 5.5C5.21569 5.6806 5.26086 5.85944 5.34876 6.02631C5.43666 6.19318 5.56556 6.3448 5.72809 6.4725C5.89062 6.6002 6.08359 6.70148 6.29597 6.77054C6.50835 6.83961 6.73597 6.8751 6.96582 6.875ZM1.71582 6.875C2.06194 6.875 2.40028 6.79436 2.68807 6.64327C2.97585 6.49218 3.20016 6.27744 3.33261 6.02619C3.46506 5.77494 3.49972 5.49847 3.43219 5.23175C3.36467 4.96503 3.198 4.72003 2.95326 4.52773C2.70852 4.33543 2.3967 4.20448 2.05723 4.15142C1.71776 4.09837 1.3659 4.1256 1.04612 4.22967C0.726354 4.33374 0.453041 4.50997 0.260749 4.73609C0.0684563 4.96221 -0.0341794 5.22805 -0.0341794 5.5C-0.0343109 5.6806 0.0108645 5.85944 0.0987637 6.02631C0.186663 6.19318 0.315562 6.3448 0.478091 6.4725C0.640619 6.6002 0.83359 6.70148 1.04597 6.77054C1.25835 6.83961 1.48597 6.8751 1.71582 6.875Z" fill="white" fill-opacity="0.9"/>
</g>
<defs>
<clipPath id="clip0_800_1844">
<rect width="14" height="11" fill="white"/>
</clipPath>
</defs>
</svg>
