<svg width="29" height="29" viewBox="0 0 29 29" fill="none" xmlns="http://www.w3.org/2000/svg">
<circle cx="14.3738" cy="14.3738" r="13.6238" stroke="#8A99B8" stroke-width="1.5"/>
<g clip-path="url(#clip0_922_1684)">
<path d="M6.95703 14.8429V13.1433C6.95703 12.4672 7.22212 11.8187 7.69399 11.3406C8.16585 10.8625 8.80584 10.5939 9.47316 10.5939H9.69123C10.4863 10.5948 11.2755 10.4564 12.024 10.1848L16.7172 6.1094C17.1733 5.71306 17.7543 5.49517 18.3551 5.49512V5.49512C18.7755 5.49512 19.1787 5.66433 19.476 5.96554C19.7733 6.26675 19.9403 6.67527 19.9403 7.10124V20.885C19.9403 21.311 19.7733 21.7195 19.476 22.0207C19.1787 22.3219 18.7755 22.4911 18.3551 22.4911C17.7543 22.4911 17.1733 22.2732 16.7172 21.8769L12.024 17.8015C11.2755 17.5299 10.4863 17.3915 9.69123 17.3923H9.47316C8.80584 17.3923 8.16585 17.1237 7.69399 16.6456C7.22212 16.1675 6.95703 15.5191 6.95703 14.8429Z" fill="#5E7094" fill-opacity="0.6"/>
</g>
<defs>
<clipPath id="clip0_922_1684">
<rect width="16.7742" height="16.996" fill="white" transform="translate(5.10156 5.49512)"/>
</clipPath>
</defs>
</svg>
