<svg width="29" height="29" viewBox="0 0 29 29" fill="none" xmlns="http://www.w3.org/2000/svg">
<circle cx="14.5" cy="14.5" r="14.5" fill="#354569"/>
<rect x="10.9277" y="7.35742" width="6.14286" height="11.8571" rx="3.07143" stroke="white" stroke-opacity="0.8"/>
<path d="M19 16.1436C19 17.4696 18.4732 18.7414 17.5355 19.6791C16.5979 20.6168 15.3261 21.1436 14 21.1436C12.6739 21.1436 11.4021 20.6168 10.4645 19.6791C9.52678 18.7414 9 17.4696 9 16.1436" stroke="#9AEBE7" stroke-opacity="0.8" stroke-linecap="round"/>
<path d="M9.71484 13.0237C9.71484 12.7965 9.93227 12.632 10.1519 12.6903C13.2184 13.5045 14.8616 13.6174 17.8469 12.71C18.064 12.644 18.2863 12.8045 18.2863 13.0314C18.2863 13.182 18.1858 13.3138 18.0398 13.351C17.3504 13.5268 15.3641 14.0008 14.0006 14.0008C12.642 14.0008 10.6653 13.5302 9.96898 13.353C9.81858 13.3147 9.71484 13.1789 9.71484 13.0237Z" fill="white" fill-opacity="0.8"/>
</svg>
