<svg width="40" height="40" viewBox="0 0 40 40" fill="none" xmlns="http://www.w3.org/2000/svg">
<circle cx="19.5219" cy="19.5219" r="19.5219" fill="#C6D3EC"/>
<g clip-path="url(#clip0_985_622)">
<path d="M12.5161 20.3402V18.7029C12.5161 18.0515 12.7749 17.4269 13.2355 16.9663C13.696 16.5057 14.3207 16.2469 14.9721 16.2469H15.1849C15.961 16.2477 16.7314 16.1144 17.462 15.8528L22.043 11.9267C22.4881 11.5449 23.0552 11.335 23.6417 11.335V11.335C24.0521 11.335 24.4456 11.498 24.7358 11.7881C25.026 12.0783 25.189 12.4719 25.189 12.8822V26.1609C25.189 26.5713 25.026 26.9648 24.7358 27.255C24.4456 27.5452 24.0521 27.7082 23.6417 27.7082V27.7082C23.0552 27.7081 22.4881 27.4982 22.043 27.1164L17.462 23.1903C16.7314 22.9287 15.961 22.7954 15.1849 22.7962H14.9721C14.3207 22.7962 13.696 22.5375 13.2355 22.0769C12.7749 21.6163 12.5161 20.9916 12.5161 20.3402V20.3402Z" fill="#08105D"/>
</g>
<defs>
<clipPath id="clip0_985_622">
<rect width="16.3732" height="16.3732" fill="white" transform="translate(10.7051 11.335)"/>
</clipPath>
</defs>
</svg>
